<svg xmlns="http://www.w3.org/2000/svg" width="177.826" height="35.179" viewBox="0 0 177.826 35.179">
  <g id="Emaar_Both_color_White" data-name="Emaar Both color &amp; White" transform="translate(-0.5 -0.771)">
    <path id="Shape" d="M26.3,32.427l-.528,3.5H.5a11.574,11.574,0,0,0,.98-5.536V6.332A11.554,11.554,0,0,0,.5.8H25.154L25.2,4.362c-.462-.187-.836-.352-1.178-.506a9.282,9.282,0,0,0-3.269-.649H7.236V16.964H23.1l-.781,2.708H7.236V33.44h14.3a10.871,10.871,0,0,0,4.81-1.321l-.066.3C26.276,32.427,26.287,32.427,26.3,32.427Zm38.037,3.5a20.55,20.55,0,0,0,.066-6.163L62.156,13.211,49.9,35.916H47.562L35.1,12.187l-2.421,17.94a23.881,23.881,0,0,0-.121,5.8H28.18A14.78,14.78,0,0,0,29.633,30.4L33.6.8h2.014L50.149,28.421,64.677.8H66.2l4.094,29.54a16.057,16.057,0,0,0,1.53,5.591Zm36.9,0L95.406,23.061H83.673L77.917,35.927H73.338a18.415,18.415,0,0,0,2.972-4.887L89.914.8h1.53l13.383,29.4a16.406,16.406,0,0,0,4.149,5.734Zm36.705,0-5.833-12.866H120.379l-5.756,12.866h-4.579a18.415,18.415,0,0,0,2.972-4.887L126.619.8h1.53l13.394,29.4a16.407,16.407,0,0,0,4.149,5.734Zm33.26.022a142.313,142.313,0,0,1-13.747-14.187c-1.629-1.9-2.774-2.146-3.511-2.19V30.391a12.34,12.34,0,0,0,.991,5.536h-7.726a11.574,11.574,0,0,0,.98-5.536V6.31a11.554,11.554,0,0,0-.98-5.536h7.572c5.173,0,17.4-.462,17.4,9.641,0,5.338-4.237,8.211-9.212,8.937L161.5,19.5s16.135,15.772,16.828,16.454Zm-9.146-18.611-.011.011A6.8,6.8,0,0,0,166.3,10.4c-.121-2.52-1.255-8-12.338-7.561V17.822s6.207.341,7.946-.418C162,17.36,162.059,17.338,162.059,17.338ZM121.5,20.607h9.476L126.2,10.118Zm-36.694,0h9.476L89.506,10.118Z" fill="#fff"/>
  </g>
</svg>
