<svg xmlns="http://www.w3.org/2000/svg" width="443.871" height="74.739" viewBox="0 0 443.871 74.739">
  <g id="Hyde_park" data-name="Hyde park" transform="translate(-185.349 565.431)">
    <g id="g10" transform="translate(329.533 -564.215)">
      <path id="path12" d="M0,0V22.168H-26.165V0h-6.183V47.191h6.183V24.044H0V47.191H6.187V0Z" fill="#555759"/>
    </g>
    <g id="g14" transform="translate(363.202 -540.413)">
      <path id="path16" d="M0,0-13.969-23.8h-6.983L-5.595,2.223V23.385H.592V2.78L16.16-23.8H13.971Z" fill="#555759"/>
    </g>
    <g id="g18">
      <g id="Group_2869" data-name="Group 2869">
        <g id="g26" transform="translate(397.744 -564.216)">
          <path id="path28" d="M0,0H-12.613V47.189H0c14.212,0,25.644-9.625,25.644-23.6S14.212,0,0,0M-.139,45.312H-6.428V1.876H-.139c10.563,0,19.285,8.307,19.285,21.717S10.424,45.312-.139,45.312" fill="#555759"/>
        </g>
        <g id="g30" transform="translate(431.095 -517.027)">
          <path id="path32" d="M0,0H26.861V-1.875H6.185V-23.141h17.3v-1.877H6.185V-45.313H26.861v-1.876H0Z" fill="#555759"/>
        </g>
        <g id="g34" transform="translate(494.09 -564.215)">
          <path id="path36" d="M0,0H-12.336V47.188h6.184v-21.2H0c9.1,0,16.853-3.856,16.853-12.995C16.853,3.892,9.1,0,0,0M-1.74,24.115H-6.152V1.875H-1.74C6.776,1.875,10.284,5.663,10.284,13c0,7.365-3.508,11.119-12.024,11.119" fill="#555759"/>
        </g>
        <g id="g38" transform="translate(507.884 -517.027)">
          <path id="path40" d="M0,0H1.947L7.68-14.283H26.688L32.419,0h6.5L19.46-48.4ZM8.409-16.157l8.756-21.788,8.756,21.788Z" fill="#555759"/>
        </g>
        <g id="g42" transform="translate(566.696 -538.223)">
          <path id="path44" d="M0,0C9.105,0,16.855-3.856,16.855-13c0-9.1-7.749-12.993-16.855-12.993H-12.855V21.2h6.183V1.285L17.477,21.2h2.816L-5.42,0ZM-6.672-24.116h4.936c8.513,0,12.024,3.788,12.024,11.119,0,7.368-3.511,11.121-12.024,11.121H-6.672Z" fill="#555759"/>
        </g>
        <g id="g46" transform="translate(610.04 -546.633)">
          <path id="path48" d="M0,0,13.656-17.581H11.188l-22.1,28.563V-17.581H-17.1V29.605h6.187v-15.5l7.021-9.072L11.849,29.605H19.18Z" fill="#555759"/>
        </g>
        <g id="g50" transform="translate(305.953 -495.988)">
          <path id="path52" d="M0,0-8.768-7.893V5.276h2.184V-2.6L2.2,5.295V-7.893H0Z" fill="#555759"/>
        </g>
        <g id="g54" transform="translate(315.88 -490.694)">
          <path id="path56" d="M0,0H8.768V-2.2H2.181V-5.481H8.768V-7.665H2.181v-3.3H8.768v-2.2H0Z" fill="#555759"/>
        </g>
        <g id="g58" transform="translate(345.399 -495.608)">
          <path id="path60" d="M0,0-4.137-8.252-8.253,0l-4.156-8.252h-2.448l6.6,13.168,4.116-8.255L0,4.916,6.584-8.252H4.136Z" fill="#555759"/>
        </g>
        <g id="g62" transform="translate(370.464 -500.4)">
          <path id="path64" d="M0,0A4.4,4.4,0,0,1,1.393-.939,4.309,4.309,0,0,1,3.1-1.279,4.226,4.226,0,0,1,6.2.011L7.749-1.544A6.651,6.651,0,0,0,5.655-2.969,6.365,6.365,0,0,0,3.1-3.481a6.355,6.355,0,0,0-2.565.523A6.839,6.839,0,0,0-1.557-1.536,6.732,6.732,0,0,0-2.98.568,6.3,6.3,0,0,0-3.5,3.1,6.315,6.315,0,0,0-2.98,5.664,6.655,6.655,0,0,0-1.557,7.751,6.835,6.835,0,0,0,.537,9.164,6.332,6.332,0,0,0,3.1,9.685a6.364,6.364,0,0,0,2.552-.511A6.714,6.714,0,0,0,7.749,7.751L6.2,6.213A4.29,4.29,0,0,1,3.1,7.484a4.355,4.355,0,0,1-1.719-.341A4.209,4.209,0,0,1-.011,6.2,4.582,4.582,0,0,1-.948,4.809,4.18,4.18,0,0,1-1.3,3.1,4.183,4.183,0,0,1-.948,1.395,4.5,4.5,0,0,1,0,0" fill="#555759"/>
        </g>
        <g id="g66" transform="translate(383.043 -490.712)">
          <path id="path68" d="M0,0H2.448L3.567-2.2H9.62l1.1,2.2h2.448L6.585-13.169ZM4.648-4.384,6.585-8.255,8.517-4.384Z" fill="#555759"/>
        </g>
        <path id="path70" d="M402.386-490.712h2.181V-503.88h-2.181Z" fill="#555759"/>
        <g id="g72" transform="translate(422.64 -497.013)">
          <path id="path74" d="M0,0A4.272,4.272,0,0,0,.775-2.483,4.219,4.219,0,0,0-.515-5.577,4.211,4.211,0,0,0-3.607-6.868h-6.585V6.3h2.181V1.917h3.72L-1.748,6.3H.775L-1.937,1.575A4.248,4.248,0,0,0,0,0M-2.071-.928a2.11,2.11,0,0,1-1.536.643l-4.4-.02v-4.36h4.4a2.1,2.1,0,0,1,1.536.643,2.106,2.106,0,0,1,.647,1.54A2.132,2.132,0,0,1-2.071-.928" fill="#555759"/>
        </g>
        <g id="g76" transform="translate(440.752 -501.944)">
          <path id="path78" d="M0,0A6.29,6.29,0,0,0-4.648-1.937,6.247,6.247,0,0,0-9.295,0a6.328,6.328,0,0,0-1.937,4.647A6.3,6.3,0,0,0-9.295,9.3a6.294,6.294,0,0,0,4.647,1.936A6.3,6.3,0,0,0,0,9.3,6.228,6.228,0,0,0,1.956,4.647,6.3,6.3,0,0,0,0,0M-1.555,7.757A4.246,4.246,0,0,1-4.648,9.028,4.3,4.3,0,0,1-7.759,7.757,4.307,4.307,0,0,1-9.031,4.647,4.248,4.248,0,0,1-7.759,1.555,4.276,4.276,0,0,1-4.648.263,4.225,4.225,0,0,1-1.555,1.555,4.22,4.22,0,0,1-.263,4.647,4.279,4.279,0,0,1-1.555,7.757" fill="#555759"/>
        </g>
        <g id="g80" transform="translate(235.574 -565.43)">
          <path id="path82" d="M0,0H-3.729V24.364l-19.531.043V0h-3.729V28.145L0,28.091Z" fill="#555759"/>
        </g>
        <path id="path84" d="M193.092-490.693h3.731v-74.737h-3.731Z" fill="#555759"/>
        <path id="path86" d="M185.349-490.693h3.731v-74.737h-3.731Z" fill="#555759"/>
        <path id="path88" d="M247.311-490.693h3.729v-74.737h-3.729Z" fill="#555759"/>
        <path id="path90" d="M255.055-490.693h3.732v-74.737h-3.732Z" fill="#555759"/>
        <g id="g92" transform="translate(239.564 -533.798)">
          <path id="path94" d="M0,0H-34.995V-31.632h-3.729V3.731H3.732V-31.632H0Z" fill="#555759"/>
        </g>
        <g id="g96" transform="translate(200.839 -490.694)">
          <path id="path98" d="M0,0H3.729V-32.151H38.724v17.9H23.235V0h3.731V-10.521H30.98V0h3.732V-10.521h4.012V0h3.733V-35.883H0Z" fill="#555759"/>
        </g>
        <g id="g100" transform="translate(235.552 -519.379)">
          <path id="path102" d="M0,0H-26.968V28.684h3.731V3.732H-3.732V7.223H-19.224V28.684h3.733V10.956H0Z" fill="#555759"/>
        </g>
        <g id="g104" transform="translate(227.807 -565.43)">
          <path id="path106" d="M0,0H-3.735V17.187H-7.748V0h-3.729V20.919H0Z" fill="#555759"/>
        </g>
      </g>
    </g>
  </g>
</svg>
