<svg xmlns="http://www.w3.org/2000/svg" width="232.75" height="39.19" viewBox="0 0 232.75 39.19">
  <g id="Hyde_park_white" data-name="Hyde park white" transform="translate(-185.349 565.431)">
    <g id="g10" transform="translate(243.992 -564.793)">
      <path id="path12" d="M-15.386,0V11.624h-13.72V0h-3.242V24.745h3.242V12.608h13.72V24.745h3.244V0Z" transform="translate(32.348)" fill="#fff"/>
    </g>
    <g id="g14" transform="translate(267.622 -564.793)">
      <path id="path16" d="M-9.966-11.321-17.291-23.8h-3.661L-12.9-10.156V.941h3.244v-10.8L-1.492-23.8H-2.64Z" transform="translate(20.952 23.803)" fill="#fff"/>
    </g>
    <g id="g18" transform="translate(185.349 -565.431)">
      <g id="Group_2869" data-name="Group 2869">
        <g id="g26" transform="translate(104.758 0.637)">
          <path id="path28" d="M-6,0h-6.614V24.744H-6c7.452,0,13.447-5.047,13.447-12.373S1.453,0-6,0m-.073,23.76h-3.3V.984h3.3C-.533.984,4.04,5.339,4.04,12.371S-.533,23.76-6.072,23.76" transform="translate(12.613)" fill="#fff"/>
        </g>
        <g id="g30" transform="translate(128.86 0.637)">
          <path id="path32" d="M0-22.445H14.085v-.983H3.243V-34.579h9.074v-.984H3.243V-46.206H14.085v-.984H0Z" transform="translate(0 47.189)" fill="#fff"/>
        </g>
        <g id="g34" transform="translate(155.424 0.638)">
          <path id="path36" d="M-5.867,0h-6.469V24.744h3.243V13.629h3.226c4.774,0,8.837-2.022,8.837-6.814C2.97,2.041-1.094,0-5.867,0M-6.78,12.645H-9.093V.983H-6.78c4.465,0,6.3,1.986,6.3,5.832,0,3.862-1.839,5.83-6.3,5.83" transform="translate(12.336)" fill="#fff"/>
        </g>
        <g id="g38" transform="translate(169.126 0)">
          <path id="path40" d="M0-23.022H1.021l3.006-7.489h9.967l3,7.489h3.408L10.2-48.4Zm4.41-8.472L9-42.919l4.591,11.425Z" transform="translate(0 48.403)" fill="#fff"/>
        </g>
        <g id="g42" transform="translate(193.224 0.638)">
          <path id="path44" d="M-6.114-12.362c4.774,0,8.838-2.022,8.838-6.815,0-4.774-4.063-6.813-8.838-6.813h-6.74V-1.246h3.242V-11.688L3.05-1.246H4.527L-8.956-12.362Zm-3.5-12.646h2.588c4.464,0,6.3,1.986,6.3,5.83,0,3.863-1.841,5.832-6.3,5.832H-9.613Z" transform="translate(12.855 25.991)" fill="#fff"/>
        </g>
        <g id="g46" transform="translate(213.727 0.638)">
          <path id="path48" d="M-8.132-8.362l7.161-9.219H-2.266L-13.853-2.6V-17.581H-17.1V7.162h3.244V-.964l3.682-4.757L-1.919,7.162H1.925Z" transform="translate(17.097 17.581)" fill="#fff"/>
        </g>
        <g id="g50" transform="translate(58.643 32.274)">
          <path id="path52" d="M-4.17-3.754l-4.6-4.139V-.988h1.145V-5.117L-3.017-.978V-7.893H-4.17Z" transform="translate(8.768 7.893)" fill="#fff"/>
        </g>
        <g id="g54" transform="translate(68.446 32.285)">
          <path id="path56" d="M0-6.263H4.6V-7.416H1.144V-9.137H4.6v-1.145H1.144v-1.732H4.6v-1.153H0Z" transform="translate(0 13.167)" fill="#fff"/>
        </g>
        <g id="g58" transform="translate(76.134 32.285)">
          <path id="path60" d="M-7.067-3.925-9.236-8.252l-2.158,4.327-2.179-4.327h-1.284l3.463,6.9,2.158-4.328,2.169,4.328,3.452-6.9H-4.9Z" transform="translate(14.857 8.252)" fill="#fff"/>
        </g>
        <g id="g62" transform="translate(95.231 32.274)">
          <path id="path64" d="M-1.665-1.656a2.3,2.3,0,0,1,.731-.492,2.259,2.259,0,0,1,.9-.178,2.216,2.216,0,0,1,1.622.676L2.4-2.465a3.488,3.488,0,0,0-1.1-.747A3.338,3.338,0,0,0-.038-3.481a3.332,3.332,0,0,0-1.345.274,3.586,3.586,0,0,0-1.1.746,3.53,3.53,0,0,0-.746,1.1A3.306,3.306,0,0,0-3.5-.03a3.311,3.311,0,0,0,.273,1.344,3.49,3.49,0,0,0,.746,1.094,3.584,3.584,0,0,0,1.1.741,3.32,3.32,0,0,0,1.345.273A3.337,3.337,0,0,0,1.3,3.155a3.521,3.521,0,0,0,1.1-.747L1.584,1.6a2.249,2.249,0,0,1-1.622.666,2.284,2.284,0,0,1-.9-.179A2.207,2.207,0,0,1-1.671,1.6,2.4,2.4,0,0,1-2.162.866a2.192,2.192,0,0,1-.185-.9,2.193,2.193,0,0,1,.185-.895,2.361,2.361,0,0,1,.5-.731" transform="translate(3.501 3.481)" fill="#fff"/>
        </g>
        <g id="g66" transform="translate(103.664 32.274)">
          <path id="path68" d="M0-6.264H1.284L1.87-7.418H5.044l.577,1.154H6.905L3.453-13.169Zm2.437-2.3,1.016-2.03,1.013,2.03Z" transform="translate(0 13.169)" fill="#fff"/>
        </g>
        <path id="path70" d="M402.386-496.975h1.144v-6.9h-1.144Z" transform="translate(-288.58 536.155)" fill="#fff"/>
        <g id="g72" transform="translate(119.082 32.274)">
          <path id="path74" d="M-4.848-3.267a2.24,2.24,0,0,0,.406-1.3,2.212,2.212,0,0,0-.676-1.623,2.208,2.208,0,0,0-1.621-.677h-3.453v6.9h1.144v-2.3H-7.1l1.333,2.3h1.323L-5.864-2.441a2.228,2.228,0,0,0,1.016-.826m-1.086-.487a1.107,1.107,0,0,1-.805.337l-2.309-.01V-5.713h2.309a1.1,1.1,0,0,1,.805.337,1.1,1.1,0,0,1,.339.808,1.118,1.118,0,0,1-.339.815" transform="translate(10.192 6.868)" fill="#fff"/>
        </g>
        <g id="g76" transform="translate(128.034 32.274)">
          <path id="path78" d="M-5.342-.921A3.3,3.3,0,0,0-7.78-1.937,3.276,3.276,0,0,0-10.216-.921a3.318,3.318,0,0,0-1.016,2.437,3.3,3.3,0,0,0,1.016,2.438A3.3,3.3,0,0,0-7.78,4.968,3.3,3.3,0,0,0-5.342,3.953,3.265,3.265,0,0,0-4.317,1.515,3.3,3.3,0,0,0-5.342-.921m-.815,4.068a2.227,2.227,0,0,1-1.622.666,2.254,2.254,0,0,1-1.631-.666,2.259,2.259,0,0,1-.667-1.631A2.227,2.227,0,0,1-9.411-.106,2.242,2.242,0,0,1-7.78-.784a2.215,2.215,0,0,1,1.622.677A2.213,2.213,0,0,1-5.48,1.515a2.244,2.244,0,0,1-.677,1.631" transform="translate(11.232 1.937)" fill="#fff"/>
        </g>
        <g id="g80" transform="translate(12.184 0.001)">
          <path id="path82" d="M-12.837,0h-1.956V12.776l-10.241.022V0h-1.956V14.758l14.152-.029Z" transform="translate(26.989)" fill="#fff"/>
        </g>
        <path id="path84" d="M193.092-526.241h1.956v-39.189h-1.956Z" transform="translate(-189.032 565.431)" fill="#fff"/>
        <path id="path86" d="M185.349-526.241h1.956v-39.189h-1.956Z" transform="translate(-185.349 565.431)" fill="#fff"/>
        <path id="path88" d="M247.311-526.241h1.956v-39.189h-1.956Z" transform="translate(-214.821 565.431)" fill="#fff"/>
        <path id="path90" d="M255.055-526.241h1.957v-39.189h-1.957Z" transform="translate(-218.504 565.431)" fill="#fff"/>
        <g id="g92" transform="translate(8.123 0)">
          <path id="path94" d="M-18.419-15.045h-18.35V-31.632h-1.956v18.543h22.262V-31.632h-1.957Z" transform="translate(38.724 31.632)" fill="#fff"/>
        </g>
        <g id="g96" transform="translate(8.123 20.374)">
          <path id="path98" d="M0-17.067H1.956V-33.926h18.35v9.384H12.183v7.475H14.14v-5.517h2.105v5.517H18.2v-5.517h2.1v5.517h1.958V-35.883H0Z" transform="translate(0 35.883)" fill="#fff"/>
        </g>
        <g id="g100" transform="translate(12.183 24.148)">
          <path id="path102" d="M-12.827,0H-26.968V15.041h1.956V1.957h10.228v1.83h-8.123V15.041h1.958v-9.3h8.123Z" transform="translate(26.968)" fill="#fff"/>
        </g>
        <g id="g104" transform="translate(16.245 0.001)">
          <path id="path106" d="M-5.459,0H-7.417V9.012h-2.1V0h-1.956V10.969h6.018Z" transform="translate(11.477)" fill="#fff"/>
        </g>
      </g>
    </g>
  </g>
</svg>
