<svg xmlns="http://www.w3.org/2000/svg" width="107.327" height="36.82" viewBox="0 0 107.327 36.82">
  <g id="LMD_White" data-name="LMD White" transform="translate(-37 346.739)">
    <path id="Path_374" data-name="Path 374" d="M310.078-346.525c-2.47.092-4.64.185-4.778.208-.231.023-.3,3.786-.3,18v17.981l1.454.138c.785.069,3.347.185,5.7.277,6.6.208,10.41-.369,13.919-2.147a15.3,15.3,0,0,0,7.525-7.571c1.685-3.462,2.216-6.671,1.87-11.449-.369-5.194-1.5-8.171-4.039-10.733a13.066,13.066,0,0,0-5.17-3.416C322.173-346.733,320.327-346.871,310.078-346.525Zm10.272,7.248c3.208.854,4.917,2.747,5.817,6.463a27.284,27.284,0,0,1,.092,8.217,9.327,9.327,0,0,1-5.332,6.648c-1.662.785-1.823.831-4.386.831a13.384,13.384,0,0,1-2.955-.185c-.208-.115-.277-2.7-.277-11.241V-339.6h2.955A20.369,20.369,0,0,1,320.35-339.277Z" transform="translate(-206.139 -0.043)" fill="#fff"/>
    <path id="Path_375" data-name="Path 375" d="M451.686-346.291a5.823,5.823,0,0,0-3.462,2.7,4.377,4.377,0,0,0-.623,2.908c0,2.7.808,4.039,3.047,5.194a8.535,8.535,0,0,0,5.494.162,6.7,6.7,0,0,0,3.578-3.024,8.4,8.4,0,0,0,.162-4.778C458.864-346.083,455.079-347.538,451.686-346.291Zm3.647,3.947a2.528,2.528,0,0,1-.138,3.047,2.039,2.039,0,0,1-2.677.138,2.733,2.733,0,0,1-.115-3.208A1.979,1.979,0,0,1,455.333-342.344Z" transform="translate(-315.823 0)" fill="#fff"/>
    <path id="Path_376" data-name="Path 376" d="M37-327.765v18.235H59.852v-7.64l-6.74.023c-3.716,0-6.994.023-7.271,0H45.31V-346H37Z" transform="translate(0 -0.568)" fill="#fff"/>
    <path id="Path_377" data-name="Path 377" d="M105.74-345.826s-.258,1.87-.42,2.955-.369,2.378-.462,2.885c-.115.508-.3,1.708-.462,2.654-.138.946-.346,2.354-.462,3.116-1.57,9.579-2.12,13.688-2.12,13.688s.181.046,4.036,0H109.8l.734-5.724c.669-5.378.946-7.017.993-5.84.023.692,1.962,8.217,2.678,10.456.3.946,1.085,3.393,1.731,5.424s1.408,4.363,1.685,5.194l.508,1.5h8.01l.439-1.5c.254-.831.692-2.331,1.016-3.347.3-1.016.969-3.255,1.5-4.963.508-1.708,1.131-3.739,1.362-4.5.254-.762.831-2.978,1.316-4.917a33.449,33.449,0,0,1,1.016-3.509,21.571,21.571,0,0,1,.531,3.393c.231,1.893.623,4.616.854,6.071.439,2.585,1.5,9.348,1.824,11.657.092.646.348,1.731.348,1.731h8.627s-2.212-14.45-4.1-26.2c-.369-2.285-.785-4.94-.923-5.886s-.369-2.331-.508-3.07l-.288-1.27s-2.329-.017-4.675,0-4.709.069-4.709.069L129-343.448c-.415,1.27-1.523,4.64-2.424,7.5-.923,2.862-1.87,5.771-2.1,6.463a66.27,66.27,0,0,0-1.847,6.856c-.023.808-.392-.231-.923-2.585-.462-2.054-1.593-5.84-4.086-13.619-.439-1.408-.946-3-1.108-3.578s-.485-1.57-.739-2.193l-.442-1.223-4.693.046Z" transform="translate(-49.854 -0.696)" fill="#fff"/>
  </g>
</svg>
