<svg xmlns="http://www.w3.org/2000/svg" width="140.362" height="48.153" viewBox="0 0 140.362 48.153">
  <g id="LMD" transform="translate(-37 346.739)">
    <path id="Path_374" data-name="Path 374" d="M311.641-346.477c-3.23.121-6.068.241-6.249.272-.3.03-.392,4.951-.392,23.546v23.516l1.9.181c1.026.091,4.377.242,7.456.362,8.634.272,13.614-.483,18.2-2.807a20.01,20.01,0,0,0,9.841-9.9c2.2-4.528,2.9-8.724,2.445-14.973-.483-6.792-1.962-10.686-5.283-14.037a17.089,17.089,0,0,0-6.762-4.468C327.459-346.748,325.044-346.93,311.641-346.477ZM325.074-337c4.2,1.117,6.43,3.592,7.607,8.452A35.684,35.684,0,0,1,332.8-317.8a12.2,12.2,0,0,1-6.973,8.694c-2.173,1.026-2.385,1.087-5.736,1.087a17.507,17.507,0,0,1-3.864-.242c-.272-.151-.362-3.532-.362-14.7v-14.46h3.864A26.635,26.635,0,0,1,325.074-337Z" transform="translate(-187.098 -0.039)"/>
    <path id="Path_375" data-name="Path 375" d="M452.943-346.153a7.616,7.616,0,0,0-4.528,3.532c-.724,1.207-.815,1.721-.815,3.8,0,3.532,1.057,5.283,3.985,6.792a11.161,11.161,0,0,0,7.185.211,8.766,8.766,0,0,0,4.679-3.955,10.987,10.987,0,0,0,.211-6.249C462.331-345.882,457.381-347.784,452.943-346.153Zm4.77,5.162a3.306,3.306,0,0,1-.181,3.985,2.666,2.666,0,0,1-3.5.181c-.936-.755-1.026-3.26-.151-4.2A2.588,2.588,0,0,1,457.713-340.991Z" transform="translate(-286.652)"/>
    <path id="Path_376" data-name="Path 376" d="M37-322.152V-298.3H66.885V-308.3l-8.815.03c-4.86,0-9.147.03-9.509,0h-.694V-346H37Z" transform="translate(0 -0.516)"/>
    <path id="Path_377" data-name="Path 377" d="M106.948-345.823s-.338,2.445-.549,3.864-.483,3.109-.6,3.773c-.151.664-.392,2.234-.6,3.471-.181,1.238-.453,3.079-.6,4.075-2.053,12.528-2.773,17.9-2.773,17.9s.237.06,5.278,0h5.167l.961-7.486c.875-7.034,1.238-9.177,1.3-7.637.03.906,2.566,10.747,3.5,13.675.392,1.238,1.419,4.438,2.264,7.094s1.841,5.705,2.2,6.792l.664,1.962h10.475l.574-1.962c.332-1.087.906-3.049,1.328-4.377.392-1.328,1.268-4.256,1.962-6.49.664-2.234,1.479-4.89,1.781-5.886.332-1,1.087-3.894,1.721-6.43a43.749,43.749,0,0,1,1.328-4.588,28.212,28.212,0,0,1,.694,4.438c.3,2.475.815,6.037,1.117,7.939.574,3.381,1.962,12.226,2.385,15.245.121.845.455,2.264.455,2.264h11.282s-2.893-18.9-5.368-34.262c-.483-2.989-1.026-6.46-1.207-7.7s-.483-3.049-.664-4.015l-.376-1.66s-3.046-.023-6.114,0-6.158.091-6.158.091l-1,3.019c-.543,1.66-1.992,6.068-3.17,9.811-1.207,3.743-2.445,7.547-2.747,8.452a86.661,86.661,0,0,0-2.415,8.966c-.03,1.057-.513-.3-1.207-3.381-.6-2.687-2.083-7.637-5.343-17.81-.574-1.841-1.238-3.924-1.449-4.679s-.634-2.053-.966-2.868l-.578-1.6-6.138.06Z" transform="translate(-45.249 -0.632)"/>
  </g>
</svg>
