<svg xmlns="http://www.w3.org/2000/svg" xmlns:xlink="http://www.w3.org/1999/xlink" width="80.225" height="62.836" viewBox="0 0 80.225 62.836">
  <defs>
    <clipPath id="clip-path">
      <path id="Path_435" data-name="Path 435" d="M0,0H80.225V62.836H0Z" transform="translate(0 0.895)" fill="#fff"/>
    </clipPath>
  </defs>
  <g id="mnhd_White" data-name="mnhd White" transform="translate(0 -0.895)" clip-path="url(#clip-path)">
    <path id="Path_432" data-name="Path 432" d="M0,52.615H3.8v1.85a5.867,5.867,0,0,1,4.733-2.172c2.61,0,4.393,1,5.385,2.743a6.441,6.441,0,0,1,5.444-2.743c4.507,0,6.746,2.5,6.746,6.654v9.563H22.2V59.246c0-2.308-1.22-3.778-3.6-3.778-2.069,0-3.658,1.358-3.658,4.157v8.883H11.052V59.135c0-2.283-1.189-3.669-3.488-3.669-2.153,0-3.742,1.414-3.742,4.238v8.8H0V52.616Zm28.293,0h3.8v1.957a6.16,6.16,0,0,1,4.959-2.283c4.167,0,6.578,2.473,6.578,6.791v9.427H39.746V59.461c0-2.473-1.248-3.993-3.742-3.993-2.182,0-3.884,1.522-3.884,4.319v8.721H28.294V52.615Zm17.542-4.209h3.826v6.111a6.2,6.2,0,0,1,4.96-2.227c4.166,0,6.577,2.473,6.577,6.791v9.426H57.286V59.489c0-2.5-1.248-4.021-3.741-4.021-2.154,0-3.856,1.55-3.856,4.319v8.722H45.835v-20.1ZM62.84,60.576a8.032,8.032,0,0,1,8.221-8.286,7,7,0,0,1,5.3,2.2V48.4h3.855V68.508h-3.83V66.445A6.911,6.911,0,0,1,71,68.834a8.109,8.109,0,0,1-8.164-8.258Zm13.749-.056a4.99,4.99,0,0,0-9.979,0,4.933,4.933,0,0,0,5.019,4.943,4.883,4.883,0,0,0,4.959-4.943Z" transform="translate(0 -5.525)" fill="#fff"/>
    <path id="Path_433" data-name="Path 433" d="M43.805.895V37.6a9.229,9.229,0,0,1-4.413-4.015V17.676l-.014-4.5L30.051,23.55l-2.9,3.229a7.024,7.024,0,0,1-10.663.323l1.429-1.592,6.142-6.844c.023-.026.041-.053.064-.081l1.149-1.272.024-.027L37.2,4.11c.166-.185.608-.627.663-.68S38,3.3,38.1,3.209A8.045,8.045,0,0,1,43.789.895h.018Z" transform="translate(-1.917)" fill="#fff"/>
    <path id="Path_434" data-name="Path 434" d="M47.406.895V37.6a9.234,9.234,0,0,0,4.414-4.015V17.676l.014-4.5L61.162,23.55l2.9,3.229a7.024,7.024,0,0,0,10.663.323L73.3,25.51l-6.142-6.844c-.023-.026-.041-.053-.064-.081l-1.149-1.272-.024-.027L54.013,4.11c-.166-.185-.608-.627-.663-.68q-.118-.112-.239-.221A8.047,8.047,0,0,0,47.423.895H47.4Z" transform="translate(-5.513)" fill="#fff"/>
  </g>
</svg>
