<svg xmlns="http://www.w3.org/2000/svg" xmlns:xlink="http://www.w3.org/1999/xlink" width="90.783" height="71.106" viewBox="0 0 90.783 71.106">
  <defs>
    <clipPath id="clip-path">
      <path id="Path_423" data-name="Path 423" d="M0,0H90.783V71.106H0Z" transform="translate(0 0.895)" fill="#fff"/>
    </clipPath>
  </defs>
  <g id="mnhd-logo" transform="translate(0 -0.895)" clip-path="url(#clip-path)">
    <path id="Path_420" data-name="Path 420" d="M0,53.17H4.3v2.093A6.639,6.639,0,0,1,9.656,52.8c2.953,0,4.971,1.136,6.094,3.1a7.288,7.288,0,0,1,6.16-3.1c5.1,0,7.634,2.827,7.634,7.53V71.157H25.116V60.673c0-2.612-1.38-4.275-4.075-4.275-2.341,0-4.139,1.537-4.139,4.7V71.154h-4.4V60.547c0-2.584-1.346-4.152-3.947-4.152-2.436,0-4.234,1.6-4.234,4.8v9.96H0V53.171Zm32.016,0h4.3v2.215A6.97,6.97,0,0,1,41.928,52.8c4.715,0,7.444,2.8,7.444,7.685V71.154h-4.4V60.916c0-2.8-1.412-4.518-4.234-4.518-2.469,0-4.4,1.722-4.4,4.887v9.869h-4.33V53.17Zm19.851-4.763H56.2v6.915A7.021,7.021,0,0,1,61.81,52.8c4.714,0,7.443,2.8,7.443,7.685V71.154H64.825V60.948c0-2.83-1.412-4.55-4.233-4.55-2.437,0-4.363,1.754-4.363,4.887v9.87H51.867V48.406ZM71.11,62.178a9.089,9.089,0,0,1,9.3-9.377,7.922,7.922,0,0,1,6,2.49V48.4h4.362V71.154H86.44V68.82a7.821,7.821,0,0,1-6.094,2.7,9.176,9.176,0,0,1-9.238-9.345Zm15.558-.063a5.647,5.647,0,0,0-11.292,0,5.582,5.582,0,0,0,5.68,5.594,5.525,5.525,0,0,0,5.612-5.594Z" fill="#00507b"/>
    <path id="Path_421" data-name="Path 421" d="M47.4.895V42.427a10.444,10.444,0,0,1-4.994-4.543v-18l-.016-5.093L31.836,26.532,28.55,30.186a7.949,7.949,0,0,1-12.066.366l1.617-1.8L25.051,21c.026-.029.046-.06.072-.092l1.3-1.439.027-.031L39.925,4.533c.188-.209.688-.71.75-.77s.162-.152.27-.25A9.1,9.1,0,0,1,47.383.895h.02Z" fill="#d63f52"/>
    <path id="Path_422" data-name="Path 422" d="M47.406.895V42.427A10.449,10.449,0,0,0,52.4,37.884v-18l.016-5.093,10.555,11.74,3.285,3.654a7.949,7.949,0,0,0,12.066.366l-1.616-1.8L69.757,21c-.026-.029-.046-.06-.072-.092l-1.3-1.439-.027-.031L54.883,4.533c-.188-.209-.688-.71-.75-.77q-.133-.127-.27-.25A9.106,9.106,0,0,0,47.425.895H47.4Z" fill="#a52c45"/>
  </g>
</svg>
