<svg xmlns="http://www.w3.org/2000/svg" width="166.844" height="179.497" viewBox="0 0 166.844 179.497">
  <g id="Mountain_view" data-name="Mountain view" transform="translate(0 1063.209)">
    <g id="g10" transform="translate(0 -1063.209)">
      <path id="path12" d="M135.017-219.805c.086.724.235,1.85,1.153,2.132a4.9,4.9,0,0,0,1.388.181c.107,0,.171.02.171.1,0,.121-.192.181-.448.181-.47,0-2.777-.02-3.567-.081-.491-.04-.6-.1-.6-.2,0-.08.043-.121.149-.141s.128-.362.085-.724L132.326-228.8h-.064l-5.233,10.459c-.449.885-.513,1.066-.705,1.066-.149,0-.256-.2-.662-.925-.555-.986-2.392-4.466-2.5-4.667-.192-.362-2.584-5.189-2.819-5.732h-.085l-.854,9.333c-.021.322-.021.684-.021,1.026a.656.656,0,0,0,.556.624,4.171,4.171,0,0,0,.811.1c.086,0,.171.041.171.1,0,.141-.128.181-.384.181-.79,0-1.815-.06-1.986-.06-.192,0-1.217.06-1.794.06-.214,0-.363-.04-.363-.181,0-.06.107-.1.214-.1a2.922,2.922,0,0,0,.641-.06c.7-.121.769-.905.854-1.67l1.538-13.114c.021-.221.107-.362.235-.362s.214.08.32.3l6.536,12.652,6.279-12.632c.086-.181.171-.322.32-.322s.214.161.256.543l1.431,12.37" transform="translate(-96.743 372.926)" fill="#ae981d"/>
      <path id="path14" d="M255.1-217.713c1.81,0,5.551-1.046,5.551-6.9,0-4.827-2.937-7.422-6.115-7.422-3.359,0-5.873,2.212-5.873,6.617C248.66-220.73,251.476-217.713,255.1-217.713Zm-.422-15c4.526,0,7.9,2.856,7.9,7.543a7.9,7.9,0,0,1-8.025,8.227c-5.511,0-7.8-4.284-7.8-7.9a7.787,7.787,0,0,1,7.925-7.865" transform="translate(-205.091 372.926)" fill="#ae981d"/>
      <path id="path16" d="M353.6-225.217c0-3.138,0-3.7-.04-4.345-.04-.684-.2-1.006-.865-1.146a3.757,3.757,0,0,0-.684-.06c-.081,0-.161-.04-.161-.121,0-.121.1-.161.322-.161.905,0,2.132.06,2.313.06s1.388-.06,1.991-.06c.221,0,.322.04.322.161,0,.081-.08.121-.161.121a2.982,2.982,0,0,0-.5.06c-.543.08-.7.443-.744,1.146-.04.644-.04,1.207-.04,4.345v2.816c0,2.9.644,4.144,1.508,4.968a3.936,3.936,0,0,0,3.038,1.106,4.225,4.225,0,0,0,3.158-1.448c.925-1.147,1.167-2.856,1.167-4.928v-2.514c0-3.138,0-3.7-.04-4.345-.04-.684-.2-1.006-.865-1.146a3.757,3.757,0,0,0-.684-.06c-.081,0-.161-.04-.161-.121,0-.121.1-.161.322-.161.905,0,2.011.06,2.132.06.141,0,1.086-.06,1.69-.06.221,0,.322.04.322.161,0,.081-.08.121-.161.121a2.987,2.987,0,0,0-.5.06c-.543.121-.7.443-.744,1.146-.04.644-.04,1.207-.04,4.345v2.152c0,2.172-.241,4.586-1.85,6.014a5.892,5.892,0,0,1-4.144,1.488,6.177,6.177,0,0,1-4.143-1.428c-.986-.945-1.75-2.353-1.75-5.29v-2.937" transform="translate(-292.446 371.54)" fill="#ae981d"/>
      <path id="path18" d="M460.486-219.966c.041,1.65.249,2.172.808,2.333a4.673,4.673,0,0,0,1.035.12c.1,0,.166.041.166.121,0,.121-.124.161-.373.161-1.18,0-2.008-.06-2.194-.06s-1.056.06-1.987.06c-.207,0-.331-.02-.331-.161,0-.08.062-.121.166-.121a3.057,3.057,0,0,0,.849-.12c.518-.141.621-.724.621-2.554l.021-11.526c0-.784.062-1.006.228-1.006s.518.442.725.644c.31.342,3.4,3.58,6.584,6.9,2.05,2.132,4.306,4.586,4.968,5.25l-.228-10.218c-.021-1.307-.165-1.75-.807-1.911a5.663,5.663,0,0,0-1.014-.1c-.145,0-.166-.06-.166-.141,0-.121.166-.141.414-.141.932,0,1.926.06,2.153.06s.911-.06,1.76-.06c.228,0,.373.02.373.141,0,.081-.083.141-.228.141a1.877,1.877,0,0,0-.5.06c-.683.141-.766.583-.766,1.79l-.041,11.787c0,1.327-.041,1.428-.186,1.428-.165,0-.414-.221-1.512-1.287-.228-.2-3.209-3.158-5.4-5.451-2.4-2.514-4.741-5.049-5.4-5.773l.269,9.635" transform="translate(-380.352 372.926)" fill="#ae981d"/>
      <path id="path20" d="M566.592-223.063c0,1.931,0,3.52.1,4.364.06.583.181,1.026.784,1.106a8.76,8.76,0,0,0,.905.08c.12,0,.161.061.161.121,0,.1-.1.161-.322.161-1.106,0-2.373-.06-2.474-.06s-1.368.06-1.971.06c-.221,0-.322-.04-.322-.161,0-.06.04-.121.161-.121a3.1,3.1,0,0,0,.6-.08c.4-.081.5-.523.583-1.106.1-.845.1-2.434.1-4.364v-8.508l-2.977.04c-1.247.02-1.73.161-2.052.644a3.529,3.529,0,0,0-.342.624c-.06.161-.121.2-.2.2-.06,0-.1-.061-.1-.181,0-.2.4-1.931.443-2.092.04-.121.12-.382.2-.382a3.75,3.75,0,0,0,.885.241c.583.06,1.348.1,1.589.1h7.543a8.045,8.045,0,0,0,1.428-.1c.3-.04.483-.1.563-.1.1,0,.1.121.1.242,0,.6-.06,1.991-.06,2.212,0,.181-.06.262-.141.262-.1,0-.141-.06-.161-.342l-.02-.221c-.06-.6-.543-1.066-2.474-1.106l-2.534-.04v8.508" transform="translate(-464.818 372.926)" fill="#ae981d"/>
      <path id="path22" d="M633.719-223.888c.1,0,.1-.06.08-.141l-1.911-5.431q-.151-.453-.3,0l-1.77,5.431c-.04.1,0,.141.06.141Zm-2.092-8.046c.241-.664.322-.784.443-.784s.2.1.443.724c.3.764,3.46,9.072,4.687,12.129.724,1.79,1.307,2.112,1.73,2.233a2.6,2.6,0,0,0,.8.12c.121,0,.2.02.2.121,0,.121-.181.161-.4.161-.3,0-1.77,0-3.158-.04-.382-.02-.6-.02-.6-.141,0-.08.06-.121.141-.141.121-.04.241-.221.121-.543l-1.871-4.948a.176.176,0,0,0-.181-.121h-4.324a.212.212,0,0,0-.2.161l-1.207,3.56a4.241,4.241,0,0,0-.282,1.347c0,.4.423.583.764.583h.2c.141,0,.2.041.2.121,0,.121-.121.161-.3.161-.483,0-1.348-.06-1.569-.06s-1.328.06-2.273.06c-.261,0-.382-.04-.382-.161,0-.08.081-.121.181-.121.141,0,.422-.02.584-.04.925-.121,1.327-.885,1.689-1.891l4.566-12.491" transform="translate(-519.157 372.926)" fill="#ae981d"/>
      <path id="path24" d="M732.082-221.677c0,1.931,0,3.52.1,4.364.06.583.181,1.026.784,1.106a8.755,8.755,0,0,0,.905.08c.121,0,.161.061.161.121,0,.1-.1.161-.322.161-1.106,0-2.373-.06-2.474-.06s-1.368.06-1.971.06c-.221,0-.322-.04-.322-.161,0-.06.04-.121.161-.121a3.1,3.1,0,0,0,.6-.08c.4-.081.5-.523.583-1.106.1-.845.1-2.434.1-4.364v-3.54c0-3.138,0-3.7-.04-4.345-.04-.684-.241-1.026-.684-1.126a2.639,2.639,0,0,0-.623-.08c-.081,0-.161-.04-.161-.121,0-.121.1-.161.322-.161.664,0,1.931.06,2.032.06s1.368-.06,1.971-.06c.221,0,.322.04.322.161,0,.081-.081.121-.161.121a2.986,2.986,0,0,0-.5.06c-.543.1-.7.443-.744,1.146-.04.644-.04,1.207-.04,4.345v3.54" transform="translate(-605.829 371.54)" fill="#ae981d"/>
      <path id="path26" d="M773.985-219.966c.042,1.65.25,2.172.812,2.333a4.73,4.73,0,0,0,1.041.12c.1,0,.167.041.167.121,0,.121-.125.161-.375.161-1.187,0-2.02-.06-2.208-.06s-1.062.06-2,.06c-.208,0-.333-.02-.333-.161,0-.08.063-.121.167-.121a3.091,3.091,0,0,0,.854-.12c.521-.141.625-.724.625-2.554l.021-11.526c0-.784.062-1.006.229-1.006s.521.442.729.644c.312.342,3.416,3.58,6.623,6.9,2.062,2.132,4.332,4.586,5,5.25l-.229-10.218c-.021-1.307-.167-1.75-.812-1.911a5.731,5.731,0,0,0-1.02-.1c-.146,0-.167-.06-.167-.141,0-.121.167-.141.417-.141.937,0,1.937.06,2.166.06s.916-.06,1.77-.06c.229,0,.375.02.375.141,0,.081-.083.141-.229.141a1.9,1.9,0,0,0-.5.06c-.687.141-.771.583-.771,1.79l-.042,11.787c0,1.327-.041,1.428-.187,1.428-.167,0-.417-.221-1.521-1.287-.229-.2-3.228-3.158-5.435-5.451-2.416-2.514-4.769-5.049-5.436-5.773l.271,9.635" transform="translate(-640.91 372.926)" fill="#ae981d"/>
      <path id="path28" d="M321.262-78.986c1.166-2.7,3.862-9.715,4.3-11.163a2.9,2.9,0,0,0,.181-.764.5.5,0,0,0-.262-.463,2.534,2.534,0,0,0-.764-.081c-.121,0-.221-.02-.221-.121,0-.121.121-.161.443-.161.8,0,1.73.06,1.971.06.121,0,.986-.06,1.569-.06.221,0,.342.04.342.141s-.08.141-.241.141a1.824,1.824,0,0,0-.965.242c-.262.181-.563.523-1.106,1.891-.221.563-1.227,2.977-2.253,5.451-1.227,2.937-2.132,5.109-2.594,6.095-.563,1.206-.644,1.528-.845,1.528-.241,0-.342-.282-.724-1.247l-4.928-12.33c-.443-1.126-.744-1.348-1.448-1.549a3.12,3.12,0,0,0-.764-.081c-.121,0-.161-.06-.161-.141,0-.121.2-.141.523-.141.966,0,2.112.06,2.353.06.2,0,1.106-.06,1.871-.06.362,0,.543.04.543.141s-.06.141-.2.141a2.342,2.342,0,0,0-.764.1.4.4,0,0,0-.261.4,7.719,7.719,0,0,0,.543,1.669l3.862,10.3" transform="translate(-259.986 255.748)" fill="#ae981d"/>
      <path id="path30" d="M421.005-82.365c0,1.931,0,3.52.1,4.364.06.583.181,1.026.784,1.106a8.81,8.81,0,0,0,.905.08c.121,0,.161.061.161.121,0,.1-.1.161-.322.161-1.106,0-2.373-.06-2.474-.06s-1.368.06-1.971.06c-.221,0-.322-.04-.322-.161,0-.06.04-.121.161-.121a3.119,3.119,0,0,0,.6-.08c.4-.081.5-.523.583-1.106.1-.845.1-2.434.1-4.364v-3.54c0-3.138,0-3.7-.04-4.345-.04-.684-.241-1.026-.684-1.126a2.643,2.643,0,0,0-.624-.081c-.08,0-.161-.04-.161-.121,0-.121.1-.161.322-.161.664,0,1.931.06,2.031.06s1.368-.06,1.971-.06c.221,0,.322.04.322.161,0,.081-.08.121-.161.121a2.994,2.994,0,0,0-.5.061c-.543.1-.7.443-.744,1.146-.04.644-.04,1.207-.04,4.345v3.54" transform="translate(-347.27 255.748)" fill="#ae981d"/>
      <path id="path32" d="M466.8-86.7c0-3.138,0-3.7-.045-4.345-.045-.684-.224-1.006-.962-1.146a4.634,4.634,0,0,0-.76-.061c-.09,0-.179-.04-.179-.121,0-.121.112-.161.358-.161.515,0,1.118,0,1.611.02l.917.04c.156,0,4.608,0,5.122-.02a6.58,6.58,0,0,0,.962-.1c.112-.02.2-.1.313-.1.067,0,.09.08.09.181,0,.141-.112.382-.179.945-.023.2-.067,1.086-.112,1.327-.022.1-.067.221-.156.221-.134,0-.179-.1-.179-.261A1.96,1.96,0,0,0,473.47-91c-.157-.322-.38-.563-1.588-.684-.38-.04-2.819-.06-3.064-.06-.09,0-.134.06-.134.2v5.551c0,.141.023.2.134.2.291,0,3.042,0,3.556-.04.537-.04.85-.081,1.051-.282.157-.161.246-.261.336-.261.067,0,.112.04.112.161s-.112.463-.179,1.126c-.045.4-.089,1.147-.089,1.287,0,.161,0,.382-.157.382-.112,0-.156-.081-.156-.181a1.856,1.856,0,0,0-.09-.664c-.089-.282-.291-.624-1.163-.7-.6-.06-2.819-.1-3.2-.1-.112,0-.157.061-.157.141v1.77c0,.684-.022,3.017,0,3.439.067,1.388.4,1.649,2.595,1.649a7.105,7.105,0,0,0,2.147-.221c.581-.221.85-.624,1.006-1.448.045-.221.09-.3.2-.3.134,0,.134.161.134.3a17.811,17.811,0,0,1-.291,1.951c-.157.523-.336.523-1.208.523-1.678,0-2.908-.04-3.78-.061-.872-.04-1.409-.06-1.745-.06-.045,0-.425,0-.895.02-.447,0-.962.04-1.3.04-.246,0-.358-.04-.358-.161,0-.06.045-.121.179-.121a3.832,3.832,0,0,0,.671-.08c.447-.081.559-.523.649-1.106.112-.845.112-2.434.112-4.364V-86.7" transform="translate(-386.379 256.539)" fill="#ae981d"/>
      <path id="path34" d="M550.885-79.308h.082c.552-1.851,2.434-7.684,3.15-10.258a4.419,4.419,0,0,0,.225-1.287c0-.362-.225-.6-1.166-.6-.1,0-.184-.06-.184-.141,0-.1.1-.141.348-.141,1.043,0,1.9.06,2.086.06.143,0,1.023-.06,1.657-.06.184,0,.287.04.287.121,0,.1-.061.161-.184.161a2.719,2.719,0,0,0-.7.1c-.614.221-.941,1.066-1.33,2.172-.9,2.554-2.967,8.951-3.764,11.2-.532,1.488-.634,1.73-.859,1.73-.2,0-.327-.261-.614-1.046l-4.01-11.2h-.041c-.736,1.931-3.539,9.313-4.276,11.183-.327.845-.43,1.066-.675,1.066-.2,0-.307-.221-.716-1.589l-3.641-11.927c-.327-1.066-.593-1.368-1.125-1.569a3.406,3.406,0,0,0-.921-.121c-.1,0-.184-.02-.184-.141,0-.1.123-.141.328-.141,1.064,0,2.189.06,2.414.06.184,0,1.084-.06,2.107-.06.287,0,.368.06.368.141,0,.121-.1.141-.2.141a2.028,2.028,0,0,0-.8.121.523.523,0,0,0-.266.483,15.489,15.489,0,0,0,.388,1.85c.307,1.287,2.435,8.669,2.741,9.735h.041l4.337-11.485c.307-.825.389-.925.511-.925.143,0,.266.261.511.945l4.071,11.425" transform="translate(-444.125 255.748)" fill="#ae981d"/>
      <path id="path36" d="M295.763-980.816c9.7-4.7,12.332-11.13,12.656-18.117-1.784,4.785-5.291,8.453-10.24,11.185-3.511,2.172-9.38,3.772-15.964,5.2-8.489,2.25-15.12,6.624-17.907,15.386,2.387-9.913,8.22-15.014,15.6-17.96,17.517-10.073,17.639-19.567,15.6-28.988-.319,7.151-3.055,12.4-7.877,16.017-6.324,4.136-12.083,8.074-15.649,11.238q-5.381,4.32-8.122,12.761v-5.654c.971-5.073,3.575-9.882,6.967-14.564,6.554-6.389,11.828-12.964,14.6-19.9,5.045-13.293,1.614-21.479-3.2-28.83a33.185,33.185,0,0,1,1,13.6c-1.388,6.521-4.674,12.964-9.978,19.325a54.23,54.23,0,0,0-8.8,14.914,103.164,103.164,0,0,1,.709-10.66c5.849-30.558,3.075-47.483-4.165-57.345-7.241,9.862-10.014,26.787-4.165,57.345a103.225,103.225,0,0,1,.709,10.66,54.231,54.231,0,0,0-8.8-14.914c-5.3-6.36-8.59-12.8-9.978-19.325a33.189,33.189,0,0,1,1-13.6c-4.817,7.351-8.248,15.537-3.2,28.83,2.771,6.939,8.045,13.514,14.6,19.9,3.392,4.681,6,9.49,6.967,14.564v5.654q-2.738-8.445-8.122-12.761c-3.566-3.164-9.325-7.1-15.649-11.238-4.822-3.614-7.558-8.866-7.877-16.017-2.043,9.421-1.921,18.914,15.6,28.988,7.376,2.946,13.209,8.046,15.6,17.96-2.787-8.763-9.418-13.136-17.907-15.386-6.585-1.427-12.453-3.027-15.964-5.2-4.949-2.732-8.457-6.4-10.24-11.185.324,6.987,2.955,13.413,12.656,18.117-7.246,6.551-10.808,13.794-7.583,22.31a18.778,18.778,0,0,0,7.362,9.156c6.137,3.946,11.959,2.641,17.5-3.371,3.907-5.578,4.312-10.575.769-14.919-4.49-5.505-13.335-4.316-15.869,2.322-1.273,3.335-.571,7.329,3.914,10.392-2.657-4.986-3-8.76-.366-10.986a5.948,5.948,0,0,1,6.526-.659c4.385,2.221,5.841,8.009,1.769,12.853-5.067,6.375-11.952,5.6-16.962-.263-4.726-5.934-1.523-18.905,6.721-21.688,7.9-2.924,15.97-1.159,24.314,8.717a37.977,37.977,0,0,1,6.686,16.069,37.98,37.98,0,0,1,6.686-16.069c8.344-9.876,16.409-11.641,24.314-8.717,8.245,2.783,11.448,15.754,6.722,21.688-5.01,5.867-11.894,6.637-16.962.263-4.072-4.844-2.616-10.632,1.769-12.853a5.948,5.948,0,0,1,6.526.659c2.629,2.225,2.291,6-.366,10.986,4.486-3.063,5.188-7.056,3.914-10.392-2.534-6.637-11.378-7.827-15.869-2.322-3.543,4.344-3.138,9.341.769,14.919,5.539,6.012,11.361,7.317,17.5,3.371a18.776,18.776,0,0,0,7.362-9.156c3.225-8.516-.337-15.759-7.583-22.31" transform="translate(-177.494 1063.209)" fill="#ae981d"/>
      <path id="path38" d="M91.785-310.258l-2,.63h-.543c0-.56-4.726-.56-4.726,0h-.267c-.14-.359-.454-.422-.832-.376-.377-.045-.691.017-.832.376h-.267c0-.56-4.726-.56-4.726,0h-.543l-2-.63L0-309.584l75.059.674,2-.63H77.6c0,.56,4.726.56,4.726,0h.267c.14.359.454.422.832.376.377.045.691-.017.832-.376h.267c0,.56,4.726.56,4.726,0h.543l2,.63,75.059-.674-75.059-.674" transform="translate(0 437.375)" fill="#ae981d"/>
    </g>
  </g>
</svg>
