<svg xmlns="http://www.w3.org/2000/svg" width="80.265" height="86.353" viewBox="0 0 80.265 86.353">
  <g id="Mountain_view_white" data-name="Mountain view white" transform="translate(0 1063.209)">
    <g id="g10" transform="translate(0 -1063.209)">
      <path id="path12" d="M125.353-226.506c.041.348.113.89.555,1.026a2.355,2.355,0,0,0,.668.087c.051,0,.082.01.082.048,0,.058-.092.087-.216.087-.226,0-1.336-.01-1.716-.039-.236-.019-.288-.049-.288-.1s.02-.058.072-.068.062-.174.041-.348l-.493-5.022h-.031L121.51-225.8c-.216.426-.247.513-.339.513-.072,0-.123-.1-.318-.445-.267-.474-1.151-2.148-1.2-2.245-.092-.174-1.243-2.5-1.356-2.758h-.041l-.411,4.49c-.01.155-.01.329-.01.494a.316.316,0,0,0,.267.3,2.006,2.006,0,0,0,.39.048c.041,0,.082.02.082.048,0,.068-.062.087-.185.087-.38,0-.873-.029-.956-.029s-.586.029-.863.029c-.1,0-.175-.019-.175-.087,0-.029.051-.048.1-.048a1.406,1.406,0,0,0,.308-.029c.339-.058.37-.435.411-.8l.74-6.309c.01-.106.051-.174.113-.174s.1.039.154.145l3.144,6.087,3.021-6.077c.041-.087.082-.155.154-.155s.1.077.123.261l.688,5.951" transform="translate(-106.94 300.17)" fill="#fff"/>
      <path id="path14" d="M250.764-225.5c.871,0,2.671-.5,2.671-3.319,0-2.322-1.413-3.571-2.942-3.571-1.616,0-2.826,1.064-2.826,3.184C247.668-226.951,249.023-225.5,250.764-225.5Zm-.2-7.219a3.526,3.526,0,0,1,3.8,3.629,3.8,3.8,0,0,1-3.861,3.958,3.628,3.628,0,0,1-3.754-3.8,3.746,3.746,0,0,1,3.813-3.783" transform="translate(-226.708 300.17)" fill="#fff"/>
      <path id="path16" d="M352.689-228.244c0-1.509,0-1.78-.019-2.09-.019-.329-.1-.484-.416-.552a1.808,1.808,0,0,0-.329-.029c-.039,0-.077-.019-.077-.058,0-.058.048-.077.155-.077.435,0,1.026.029,1.113.029s.668-.029.958-.029c.106,0,.155.019.155.077,0,.039-.039.058-.077.058a1.435,1.435,0,0,0-.242.029c-.261.039-.339.213-.358.552-.019.31-.019.581-.019,2.09v1.355a2.98,2.98,0,0,0,.726,2.39,1.893,1.893,0,0,0,1.461.532,2.033,2.033,0,0,0,1.519-.7,3.758,3.758,0,0,0,.561-2.371v-1.21c0-1.509,0-1.78-.019-2.09-.019-.329-.1-.484-.416-.552a1.808,1.808,0,0,0-.329-.029c-.039,0-.077-.019-.077-.058,0-.058.048-.077.155-.077.435,0,.968.029,1.026.029s.523-.029.813-.029c.106,0,.155.019.155.077,0,.039-.039.058-.077.058a1.437,1.437,0,0,0-.242.029c-.261.058-.339.213-.358.552-.019.31-.019.581-.019,2.09v1.035a3.77,3.77,0,0,1-.89,2.893,2.835,2.835,0,0,1-1.993.716,2.972,2.972,0,0,1-1.993-.687,3.2,3.2,0,0,1-.842-2.545v-1.413" transform="translate(-323.271 298.637)" fill="#fff"/>
      <path id="path18" d="M458.993-226.583c.02.794.12,1.045.389,1.123a2.247,2.247,0,0,0,.5.058c.05,0,.08.019.08.058,0,.058-.06.077-.179.077-.568,0-.966-.029-1.056-.029s-.508.029-.956.029c-.1,0-.159-.01-.159-.077,0-.039.03-.058.08-.058a1.47,1.47,0,0,0,.408-.058c.249-.068.3-.348.3-1.229l.01-5.545c0-.377.03-.484.11-.484s.249.213.349.31c.149.164,1.633,1.723,3.167,3.319.986,1.026,2.072,2.206,2.39,2.526l-.109-4.916c-.01-.629-.08-.842-.388-.919a2.725,2.725,0,0,0-.488-.048c-.07,0-.08-.029-.08-.068,0-.058.08-.068.2-.068.448,0,.926.029,1.036.029s.438-.029.846-.029c.109,0,.179.01.179.068,0,.039-.04.068-.109.068a.9.9,0,0,0-.239.029c-.328.068-.368.281-.368.861l-.02,5.67c0,.639-.02.687-.09.687s-.2-.106-.727-.619c-.109-.1-1.544-1.519-2.6-2.622-1.155-1.21-2.281-2.429-2.6-2.777l.129,4.635" transform="translate(-420.442 300.169)" fill="#fff"/>
      <path id="path20" d="M562.772-228.073c0,.929,0,1.693.049,2.1.029.281.087.493.377.532a4.2,4.2,0,0,0,.436.039c.058,0,.078.029.078.058,0,.049-.049.077-.155.077-.532,0-1.142-.029-1.19-.029s-.658.029-.948.029c-.107,0-.155-.019-.155-.077,0-.029.019-.058.077-.058a1.488,1.488,0,0,0,.29-.039c.194-.039.242-.252.281-.532.049-.406.049-1.171.049-2.1v-4.093l-1.432.019c-.6.01-.832.077-.987.31a1.71,1.71,0,0,0-.164.3c-.029.077-.058.1-.1.1s-.048-.029-.048-.087c0-.1.193-.929.213-1.006.02-.058.058-.184.1-.184a1.808,1.808,0,0,0,.426.116c.281.029.648.048.765.048h3.629a3.877,3.877,0,0,0,.687-.048c.145-.019.232-.048.271-.048s.048.058.048.116c0,.29-.029.958-.029,1.064,0,.087-.029.126-.068.126s-.068-.029-.077-.164l-.01-.106c-.029-.29-.261-.513-1.19-.532l-1.219-.019v4.093" transform="translate(-513.811 300.17)" fill="#fff"/>
      <path id="path22" d="M628.99-228.47c.049,0,.049-.029.039-.068l-.919-2.613q-.073-.218-.145,0l-.851,2.613c-.019.048,0,.068.029.068Zm-1.006-3.871c.116-.319.155-.377.213-.377s.1.048.213.348c.145.368,1.664,4.364,2.255,5.835.348.861.629,1.016.832,1.074a1.252,1.252,0,0,0,.387.058c.058,0,.1.01.1.058s-.087.077-.193.077c-.145,0-.852,0-1.52-.019-.184-.01-.29-.01-.29-.068,0-.039.029-.058.068-.068.058-.019.116-.106.058-.261l-.9-2.38a.085.085,0,0,0-.087-.058h-2.08a.1.1,0,0,0-.1.077l-.581,1.713a2.04,2.04,0,0,0-.135.648c0,.194.2.281.368.281h.1c.068,0,.1.019.1.058,0,.058-.058.077-.145.077-.232,0-.648-.029-.755-.029s-.639.029-1.094.029c-.126,0-.184-.019-.184-.077,0-.039.039-.058.087-.058.068,0,.2-.01.281-.019.445-.058.639-.426.813-.909l2.2-6.009" transform="translate(-573.877 300.169)" fill="#fff"/>
      <path id="path24" d="M730.422-226.541c0,.929,0,1.693.049,2.1.029.281.087.493.377.532a4.2,4.2,0,0,0,.435.039c.058,0,.078.029.078.058,0,.049-.049.077-.155.077-.532,0-1.142-.029-1.19-.029s-.658.029-.948.029c-.107,0-.155-.019-.155-.077,0-.029.019-.058.078-.058a1.488,1.488,0,0,0,.29-.039c.194-.039.242-.252.281-.532.049-.406.049-1.171.049-2.1v-1.7c0-1.509,0-1.78-.02-2.09-.019-.329-.116-.493-.329-.542a1.271,1.271,0,0,0-.3-.039c-.039,0-.077-.019-.077-.058,0-.058.048-.077.155-.077.319,0,.929.029.977.029s.658-.029.948-.029c.106,0,.155.019.155.077,0,.039-.039.058-.077.058a1.439,1.439,0,0,0-.242.029c-.261.048-.339.213-.358.552-.019.31-.019.581-.019,2.09v1.7" transform="translate(-669.685 298.637)" fill="#fff"/>
      <path id="path26" d="M772.483-226.583c.02.794.12,1.045.391,1.123a2.276,2.276,0,0,0,.5.058c.05,0,.08.019.08.058,0,.058-.06.077-.18.077-.571,0-.972-.029-1.062-.029s-.511.029-.962.029c-.1,0-.16-.01-.16-.077,0-.039.03-.058.08-.058a1.485,1.485,0,0,0,.411-.058c.251-.068.3-.348.3-1.229l.01-5.545c0-.377.03-.484.11-.484s.25.213.351.31c.15.164,1.643,1.723,3.186,3.319.992,1.026,2.084,2.206,2.4,2.526l-.11-4.916c-.01-.629-.08-.842-.391-.919a2.757,2.757,0,0,0-.491-.048c-.07,0-.08-.029-.08-.068,0-.058.08-.068.2-.068.451,0,.932.029,1.042.029s.441-.029.852-.029c.11,0,.18.01.18.068,0,.039-.04.068-.11.068a.912.912,0,0,0-.241.029c-.331.068-.371.281-.371.861l-.02,5.67c0,.639-.02.687-.09.687s-.2-.106-.731-.619c-.11-.1-1.553-1.519-2.615-2.622-1.162-1.21-2.294-2.429-2.615-2.777l.13,4.635" transform="translate(-708.463 300.169)" fill="#fff"/>
      <path id="path28" d="M316.868-85.6c.561-1.3,1.858-4.674,2.071-5.37a1.4,1.4,0,0,0,.087-.368.239.239,0,0,0-.126-.223,1.22,1.22,0,0,0-.368-.039c-.058,0-.106-.01-.106-.058s.058-.077.213-.077c.387,0,.832.029.948.029.058,0,.474-.029.755-.029.106,0,.165.019.165.068s-.039.068-.116.068a.877.877,0,0,0-.464.116c-.126.087-.271.252-.532.91-.106.271-.59,1.432-1.084,2.622-.59,1.413-1.026,2.458-1.248,2.932-.271.58-.31.735-.406.735-.116,0-.164-.135-.348-.6l-2.371-5.932c-.213-.542-.358-.648-.7-.745a1.5,1.5,0,0,0-.368-.039c-.058,0-.077-.029-.077-.068,0-.058.1-.068.252-.068.465,0,1.016.029,1.132.029.1,0,.532-.029.9-.029.174,0,.261.019.261.068s-.029.068-.1.068a1.126,1.126,0,0,0-.368.049.194.194,0,0,0-.126.194,3.713,3.713,0,0,0,.261.8l1.858,4.954" transform="translate(-287.389 170.64)" fill="#fff"/>
      <path id="path30" d="M419.346-87.229c0,.929,0,1.693.048,2.1.029.281.087.493.377.532a4.242,4.242,0,0,0,.435.039c.058,0,.077.029.077.058,0,.049-.048.077-.155.077-.532,0-1.142-.029-1.19-.029s-.658.029-.948.029c-.107,0-.155-.019-.155-.077,0-.029.019-.058.077-.058a1.5,1.5,0,0,0,.29-.039c.194-.039.242-.252.281-.532.048-.406.048-1.171.048-2.1v-1.7c0-1.509,0-1.78-.019-2.09-.019-.329-.116-.493-.329-.542a1.27,1.27,0,0,0-.3-.039c-.039,0-.078-.019-.078-.058,0-.058.048-.077.155-.077.319,0,.929.029.977.029s.658-.029.948-.029c.106,0,.155.019.155.077,0,.039-.039.058-.077.058a1.44,1.44,0,0,0-.242.029c-.261.048-.339.213-.358.552-.019.31-.019.581-.019,2.09v1.7" transform="translate(-383.873 170.64)" fill="#fff"/>
      <path id="path32" d="M465.795-89.807c0-1.509,0-1.78-.021-2.09-.022-.329-.108-.484-.463-.552a2.231,2.231,0,0,0-.366-.029c-.043,0-.086-.019-.086-.058,0-.058.054-.077.172-.077.248,0,.538,0,.775.01l.441.019c.075,0,2.217,0,2.464-.01a3.163,3.163,0,0,0,.463-.048c.054-.01.1-.048.151-.048.032,0,.043.039.043.087,0,.068-.054.184-.086.455-.011.1-.032.523-.054.639-.011.048-.032.106-.075.106-.065,0-.086-.048-.086-.126a.941.941,0,0,0-.065-.348c-.075-.155-.183-.271-.764-.329-.183-.019-1.356-.029-1.474-.029-.043,0-.065.029-.065.1v2.671c0,.068.011.1.065.1.14,0,1.463,0,1.711-.019s.409-.039.506-.135c.075-.077.118-.126.161-.126s.054.019.054.077-.054.223-.086.542c-.022.194-.043.552-.043.619s0,.184-.075.184c-.054,0-.075-.039-.075-.087a.891.891,0,0,0-.043-.319c-.043-.135-.14-.3-.559-.339-.291-.029-1.356-.048-1.539-.048-.054,0-.075.029-.075.068v.852c0,.329-.011,1.451,0,1.655.032.668.194.793,1.248.793a3.417,3.417,0,0,0,1.033-.106c.28-.107.409-.3.484-.7.022-.106.043-.145.1-.145s.065.077.065.145a8.576,8.576,0,0,1-.14.939c-.075.252-.161.252-.581.252-.807,0-1.4-.019-1.819-.029s-.678-.029-.839-.029c-.022,0-.2,0-.43.01s-.463.019-.624.019c-.118,0-.172-.019-.172-.077,0-.029.022-.058.086-.058a1.841,1.841,0,0,0,.323-.039c.215-.039.269-.252.312-.532.054-.406.054-1.171.054-2.1v-1.7" transform="translate(-427.104 171.515)" fill="#fff"/>
      <path id="path34" d="M542.3-85.758h.039c.266-.89,1.171-3.7,1.515-4.935a2.129,2.129,0,0,0,.108-.619c0-.174-.108-.29-.561-.29-.049,0-.089-.029-.089-.068s.049-.068.167-.068c.5,0,.915.029,1,.029.069,0,.492-.029.8-.029.089,0,.138.019.138.058s-.03.077-.089.077a1.308,1.308,0,0,0-.335.049c-.3.106-.453.513-.64,1.045-.433,1.229-1.427,4.306-1.811,5.39-.256.716-.305.832-.414.832s-.157-.126-.3-.5l-1.929-5.39h-.02c-.354.929-1.7,4.48-2.057,5.38-.157.406-.207.513-.325.513-.1,0-.148-.106-.344-.764l-1.752-5.738c-.157-.513-.286-.658-.541-.755a1.639,1.639,0,0,0-.443-.058c-.049,0-.089-.01-.089-.068s.059-.068.158-.068c.512,0,1.053.029,1.161.029.089,0,.522-.029,1.014-.029.138,0,.177.029.177.068,0,.058-.049.068-.1.068a.975.975,0,0,0-.384.058.251.251,0,0,0-.128.232,7.444,7.444,0,0,0,.187.89c.148.619,1.171,4.171,1.319,4.683h.02l2.086-5.525c.147-.4.187-.445.246-.445s.128.126.246.455l1.958,5.5" transform="translate(-490.937 170.64)" fill="#fff"/>
      <path id="path36" d="M253.1-1023.571c4.667-2.263,5.933-5.354,6.088-8.716a10.239,10.239,0,0,1-4.926,5.381c-1.689,1.044-4.512,1.814-7.68,2.5-4.084,1.083-7.274,3.186-8.615,7.4a11.6,11.6,0,0,1,7.5-8.64c8.427-4.846,8.486-9.413,7.5-13.945a9.606,9.606,0,0,1-3.79,7.705,71.861,71.861,0,0,0-7.528,5.406,12.6,12.6,0,0,0-3.907,6.139v-2.72a17.958,17.958,0,0,1,3.352-7.006c3.153-3.074,5.69-6.237,7.023-9.575,2.427-6.4.776-10.333-1.541-13.87a15.964,15.964,0,0,1,.48,6.543,21.606,21.606,0,0,1-4.8,9.3,26.089,26.089,0,0,0-4.232,7.175,49.62,49.62,0,0,1,.341-5.128c2.814-14.7,1.479-22.843-2-27.587-3.483,4.744-4.818,12.886-2,27.587a49.671,49.671,0,0,1,.341,5.128,26.09,26.09,0,0,0-4.232-7.175,21.607,21.607,0,0,1-4.8-9.3,15.967,15.967,0,0,1,.48-6.543c-2.317,3.537-3.968,7.474-1.541,13.87,1.333,3.338,3.87,6.5,7.023,9.575a17.959,17.959,0,0,1,3.352,7.006v2.72a12.6,12.6,0,0,0-3.907-6.139,71.868,71.868,0,0,0-7.529-5.406,9.606,9.606,0,0,1-3.789-7.705c-.983,4.532-.924,9.1,7.5,13.945a11.6,11.6,0,0,1,7.5,8.64c-1.341-4.216-4.531-6.319-8.615-7.4-3.168-.687-5.991-1.456-7.68-2.5a10.238,10.238,0,0,1-4.926-5.381c.156,3.361,1.421,6.452,6.088,8.716-3.486,3.152-5.2,6.636-3.648,10.733a9.032,9.032,0,0,0,3.542,4.4c2.953,1.9,5.753,1.271,8.418-1.621,1.88-2.684,2.074-5.088.37-7.177a4.463,4.463,0,0,0-7.634,1.117c-.612,1.6-.275,3.526,1.883,5-1.278-2.4-1.441-4.214-.176-5.285a2.862,2.862,0,0,1,3.14-.317c2.11,1.068,2.81,3.853.851,6.183-2.438,3.067-5.75,2.7-8.16-.126-2.274-2.855-.733-9.095,3.234-10.434,3.8-1.406,7.683-.557,11.7,4.194a18.27,18.27,0,0,1,3.216,7.731,18.272,18.272,0,0,1,3.216-7.731c4.014-4.751,7.894-5.6,11.7-4.194,3.966,1.339,5.507,7.579,3.234,10.434-2.41,2.823-5.722,3.193-8.16.126-1.959-2.33-1.259-5.115.851-6.183a2.862,2.862,0,0,1,3.14.317c1.265,1.071,1.1,2.886-.176,5.285,2.158-1.474,2.5-3.395,1.883-5a4.463,4.463,0,0,0-7.634-1.117c-1.7,2.09-1.51,4.494.37,7.177,2.665,2.892,5.465,3.52,8.418,1.621a9.031,9.031,0,0,0,3.542-4.4c1.552-4.1-.162-7.581-3.648-10.733" transform="translate(-196.202 1063.209)" fill="#fff"/>
      <path id="path38" d="M44.156-310.258l-.96.3h-.261c0-.27-2.274-.27-2.274,0h-.128c-.067-.173-.218-.2-.4-.181-.181-.022-.332.008-.4.181H39.6c0-.27-2.274-.27-2.274,0H37.07l-.96-.3L0-309.934l36.11.324.96-.3h.261c0,.269,2.274.269,2.274,0h.128c.068.173.219.2.4.181.182.022.333-.008.4-.181h.128c0,.269,2.274.269,2.274,0H43.2l.96.3,36.11-.324-36.11-.324" transform="translate(0 371.412)" fill="#fff"/>
    </g>
  </g>
</svg>
