<svg xmlns="http://www.w3.org/2000/svg" width="486.814" height="96.305" viewBox="0 0 486.814 96.305">
  <g id="Page-1" transform="translate(-0.5 -0.771)">
    <path id="Shape" d="M71.125,87.434l-1.446,9.581H.5C3.362,90.387,3.182,86.651,3.182,81.86V16C3.182,11.355,3.362,7.288.5.84H67.992l.121,9.762c-1.265-.512-2.29-.964-3.224-1.386A25.412,25.412,0,0,0,55.94,7.438h-37V45.1H62.357l-2.139,7.412H18.94V90.206H58.079c6.6.121,13.167-3.616,13.167-3.616l-.181.814C71.065,87.434,71.1,87.434,71.125,87.434Zm104.13,9.581a56.259,56.259,0,0,0,.181-16.873L169.29,34.827,135.724,96.985h-6.388L95.229,32.024,88.6,81.137c-.723,5.664-.934,12.835-.331,15.879H76.278c2.32-4.911,2.893-7.05,3.977-15.125L91.1.84h5.514l39.8,75.627L176.189.84h4.158l11.208,80.87c1.115,8.045,1.958,10.365,4.188,15.306Zm101.027,0L260.313,61.793H228.194L212.436,97.015H199.9a50.411,50.411,0,0,0,8.135-13.378L245.278.84h4.188L286.1,81.317c3.917,7.864,5.755,10.3,11.359,15.7Zm100.484,0L360.8,61.793H328.678L312.92,97.015H300.386a50.411,50.411,0,0,0,8.135-13.378L345.762.84h4.188l36.668,80.478c3.917,7.864,5.755,10.3,11.359,15.7Zm91.054.06a389.6,389.6,0,0,1-37.633-38.838c-4.459-5.213-7.593-5.875-9.612-6V81.86c0,4.761,0,8.527,2.712,15.156H402.136c2.862-6.629,2.682-10.365,2.682-15.156V15.935c0-4.64.181-8.708-2.682-15.156h20.73C437.027.779,470.5-.486,470.5,27.173c0,14.613-11.6,22.477-25.219,24.466l-4.037.392s44.171,43.177,46.069,45.045Zm-25.038-50.95-.03.03c8.919-3.375,11.932-11.841,11.63-19.012-.331-6.9-3.435-21.9-33.776-20.7V47.451s16.993.934,21.754-1.145C442.631,46.186,442.782,46.125,442.782,46.125Zm-111.03,8.949h25.942L344.617,26.36Zm-100.454,0H257.24L244.163,26.36Z" fill="#fff"/>
  </g>
</svg>
