<svg id="Palm_hills_White" data-name="Palm hills White" xmlns="http://www.w3.org/2000/svg" width="173.258" height="47.1" viewBox="0 0 173.258 47.1">
  <path id="Path_378" data-name="Path 378" d="M51.007,27.459H27.457v23.55Z" transform="translate(-3.908 -3.908)" fill="#f4f4f4" fill-rule="evenodd"/>
  <path id="Path_379" data-name="Path 379" d="M27.458,0V23.548h23.55Z" transform="translate(-3.908)" fill="#f4f4f4" fill-rule="evenodd"/>
  <path id="Path_380" data-name="Path 380" d="M0,23.55H23.548V0Z" fill="#f4f4f4" fill-rule="evenodd"/>
  <path id="Path_381" data-name="Path 381" d="M23.55,51.008V27.458H0Z" transform="translate(0 -3.908)" fill="#f4f4f4" fill-rule="evenodd"/>
  <path id="Path_382" data-name="Path 382" d="M33.07,37.969,26.337,30.4l-6.724,7.57,6.724-6.09Z" transform="translate(-2.791 -4.327)" fill="#fffffe" fill-rule="evenodd"/>
  <path id="Path_383" data-name="Path 383" d="M31.667,40.349,26.616,35.3l-5.042,5.046,5.042-4.224Z" transform="translate(-3.071 -5.024)" fill="#fffffe" fill-rule="evenodd"/>
  <path id="Path_384" data-name="Path 384" d="M30.264,42.59,26.9,39.226,23.535,42.59,26.9,39.558Z" transform="translate(-3.35 -5.583)" fill="#fffffe" fill-rule="evenodd"/>
  <path id="Path_385" data-name="Path 385" d="M28.86,44.83l-1.688-1.682L25.5,44.83l1.676-1.515Z" transform="translate(-3.629 -6.141)" fill="#fffffe" fill-rule="evenodd"/>
  <path id="Path_386" data-name="Path 386" d="M34.472,34.473l-7.226-8.42,7.226-8.4-8.415,7.221L17.65,17.651l7.217,8.411-7.217,8.41,8.406-7.235Z" transform="translate(-2.512 -2.512)" fill="#fffffe" fill-rule="evenodd"/>
  <path id="Path_387" data-name="Path 387" d="M11.489,27.168,9.807,25.5l1.516,1.686L9.807,28.86Z" transform="translate(-1.396 -3.629)" fill="#fffffe" fill-rule="evenodd"/>
  <path id="Path_388" data-name="Path 388" d="M15.132,26.89l-3.364-3.355,3.03,3.373-3.03,3.355Z" transform="translate(-1.675 -3.35)" fill="#fffffe" fill-rule="evenodd"/>
  <path id="Path_389" data-name="Path 389" d="M18.775,26.612l-5.046-5.038,4.2,5.046-4.2,5.046Z" transform="translate(-1.954 -3.071)" fill="#fffffe" fill-rule="evenodd"/>
  <path id="Path_390" data-name="Path 390" d="M22.418,26.332l-6.728-6.72,5.4,6.73-5.4,6.727Z" transform="translate(-2.233 -2.791)" fill="#fffffe" fill-rule="evenodd"/>
  <path id="Path_391" data-name="Path 391" d="M44.129,27.185l1.682,1.675-1.517-1.675L45.811,25.5Z" transform="translate(-6.281 -3.629)" fill="#fffffe" fill-rule="evenodd"/>
  <path id="Path_392" data-name="Path 392" d="M40.205,26.909l3.363,3.355L40.543,26.9l3.026-3.363Z" transform="translate(-5.722 -3.35)" fill="#fffffe" fill-rule="evenodd"/>
  <path id="Path_393" data-name="Path 393" d="M35.3,26.617l5.046,5.049-4.207-5.046,4.207-5.047Z" transform="translate(-5.024 -3.071)" fill="#fffffe" fill-rule="evenodd"/>
  <path id="Path_394" data-name="Path 394" d="M38.109,19.612,31.381,26.35l6.728,6.72L32.7,26.35Z" transform="translate(-4.466 -2.791)" fill="#fffffe" fill-rule="evenodd"/>
  <path id="Path_395" data-name="Path 395" d="M33.07,14.709,26.337,20.8l-6.724-6.088,6.727,7.57Z" transform="translate(-2.791 -2.093)" fill="#fffffe" fill-rule="evenodd"/>
  <path id="Path_396" data-name="Path 396" d="M31.667,12.748l-5.051,4.219-5.042-4.219,5.042,5.046Z" transform="translate(-3.071 -1.814)" fill="#fffffe" fill-rule="evenodd"/>
  <path id="Path_397" data-name="Path 397" d="M30.264,10.787,26.9,13.817l-3.362-3.03L26.9,14.151Z" transform="translate(-3.35 -1.535)" fill="#fffffe" fill-rule="evenodd"/>
  <path id="Path_398" data-name="Path 398" d="M28.86,8.825l-1.687,1.517L25.5,8.825l1.682,1.682Z" transform="translate(-3.629 -1.256)" fill="#fffffe" fill-rule="evenodd"/>
  <path id="Path_399" data-name="Path 399" d="M78.276,17.268H76.262V13.5h2.1c1.84,0,2.115,1.161,2.115,1.854C80.473,16.571,79.672,17.268,78.276,17.268Zm.083-6.257H73.547V25.935h2.716V19.761h1.82c3.814,0,5.173-2.233,5.173-4.32C83.256,13.3,81.968,11.011,78.359,11.011Z" transform="translate(-10.468 -1.567)" fill="#fff" fill-rule="evenodd"/>
  <path id="Path_400" data-name="Path 400" d="M91.036,15.2l1.8,4.025h-3.47ZM86.479,25.92l1.811-4.209h5.682l1.916,4.209h2.82L92,10.911H90.112L83.662,25.92Z" transform="translate(-11.907 -1.553)" fill="#fff" fill-rule="evenodd"/>
  <path id="Path_401" data-name="Path 401" d="M105.264,23.442V11.011h-2.719V25.935h9.2V23.442Z" transform="translate(-14.595 -1.567)" fill="#fff" fill-rule="evenodd"/>
  <path id="Path_402" data-name="Path 402" d="M126.861,25.935h2.715V11.011h-2.4l-4.625,5.667-4.6-5.667h-2.424V25.935h2.721V15.373l3.977,4.974h.655l3.979-4.974Z" transform="translate(-16.443 -1.567)" fill="#fff" fill-rule="evenodd"/>
  <path id="Path_403" data-name="Path 403" d="M142.826,25.935V19.718h7.392v6.217h2.719V11.011h-2.719v6.215h-7.392V11.011h-2.719V25.935Z" transform="translate(-19.941 -1.567)" fill="#fff" fill-rule="evenodd"/>
  <path id="Path_404" data-name="Path 404" d="M159.018,25.935h2.715V11.011h-2.715Z" transform="translate(-22.632 -1.567)" fill="#fff" fill-rule="evenodd"/>
  <path id="Path_405" data-name="Path 405" d="M175.782,25.935V23.442h-6.487V11.011h-2.716V25.935Z" transform="translate(-23.708 -1.567)" fill="#fff" fill-rule="evenodd"/>
  <path id="Path_406" data-name="Path 406" d="M188.795,25.935V23.442h-6.484V11.011h-2.719V25.935Z" transform="translate(-25.561 -1.567)" fill="#fff" fill-rule="evenodd"/>
  <path id="Path_407" data-name="Path 407" d="M200.552,21.894c0-2.747-2.136-3.945-3.852-4.906-1.268-.712-2.361-1.326-2.361-2.334,0-.809.8-1.373,1.949-1.373a4.541,4.541,0,0,1,3.145,1.4l.55.518V11.944l-.143-.1a6.16,6.16,0,0,0-3.381-1.062c-2.85,0-4.688,1.627-4.688,4.135,0,2.282,1.909,3.427,3.589,4.438,1.408.844,2.624,1.578,2.624,2.767,0,.571-.545,1.474-2.011,1.474a4.531,4.531,0,0,1-3.535-1.95l-.583-.738v3.7l.131.1a6.741,6.741,0,0,0,4.22,1.382A4.137,4.137,0,0,0,200.552,21.894Z" transform="translate(-27.294 -1.535)" fill="#fff" fill-rule="evenodd"/>
  <path id="Path_408" data-name="Path 408" d="M78.734,39.364a2.3,2.3,0,0,1-2.523,2.314H74.836V37.051h1.325A2.268,2.268,0,0,1,78.734,39.364Zm-2.418-3.5H73.547v7h2.784a3.533,3.533,0,0,0,3.724-3.5A3.464,3.464,0,0,0,76.316,35.864Z" transform="translate(-10.468 -5.104)" fill="#fff" fill-rule="evenodd"/>
  <path id="Path_409" data-name="Path 409" d="M87.6,41.679V39.926h2.749V38.742H87.6V37.052h2.847V35.865H86.3v7h4.23V41.679Z" transform="translate(-12.283 -5.105)" fill="#fff" fill-rule="evenodd"/>
  <path id="Path_410" data-name="Path 410" d="M100.123,35.864l-1.9,4.436-1.912-4.436H94.992l3.045,7.061h.415l2.981-7.061Z" transform="translate(-13.52 -5.104)" fill="#fff" fill-rule="evenodd"/>
  <path id="Path_411" data-name="Path 411" d="M107.852,41.679V39.926h2.75V38.742h-2.75V37.052H110.7V35.865h-4.137v7h4.227V41.679Z" transform="translate(-15.166 -5.105)" fill="#fff" fill-rule="evenodd"/>
  <path id="Path_412" data-name="Path 412" d="M117.949,41.679V35.865h-1.3v7h4.326V41.679Z" transform="translate(-16.603 -5.105)" fill="#fff" fill-rule="evenodd"/>
  <path id="Path_413" data-name="Path 413" d="M129.619,41.733a2.384,2.384,0,1,1,2.456-2.383A2.337,2.337,0,0,1,129.619,41.733Zm0-5.974a3.594,3.594,0,1,0,3.78,3.591A3.6,3.6,0,0,0,129.619,35.759Z" transform="translate(-17.912 -5.089)" fill="#fff" fill-rule="evenodd"/>
  <path id="Path_414" data-name="Path 414" d="M141.711,38.79h-.928V37.051h.969c.853,0,.979.534.979.851C142.731,38.467,142.359,38.79,141.711,38.79Zm.041-2.926h-2.264v7h1.3V39.977h.839c1.791,0,2.429-1.05,2.429-2.034A2.031,2.031,0,0,0,141.752,35.864Z" transform="translate(-19.853 -5.104)" fill="#fff" fill-rule="evenodd"/>
  <path id="Path_415" data-name="Path 415" d="M154.965,35.864l-2.153,2.644-2.154-2.644h-1.144v7H150.8V37.943l1.847,2.308h.315l1.847-2.308v4.918H156.1v-7Z" transform="translate(-21.28 -5.104)" fill="#fff" fill-rule="evenodd"/>
  <path id="Path_416" data-name="Path 416" d="M163.739,41.679V39.926h2.746V38.742h-2.746V37.052h2.843V35.865h-4.137v7h4.227V41.679Z" transform="translate(-23.12 -5.105)" fill="#fff" fill-rule="evenodd"/>
  <path id="Path_417" data-name="Path 417" d="M178.319,35.864v4.894L174,35.864h-1v7h1.232V38l4.255,4.864h1.063v-7Z" transform="translate(-24.622 -5.104)" fill="#fff" fill-rule="evenodd"/>
  <path id="Path_418" data-name="Path 418" d="M185.9,35.864v1.187h2.325v5.81h1.293v-5.81h2.324V35.864Z" transform="translate(-26.459 -5.104)" fill="#fff" fill-rule="evenodd"/>
  <path id="Path_419" data-name="Path 419" d="M199.516,38.659c-.588-.332-1.1-.619-1.1-1.083,0-.369.369-.629.9-.629a2.116,2.116,0,0,1,1.463.649l.274.258V36.3l-.071-.046a2.9,2.9,0,0,0-1.588-.5,1.974,1.974,0,0,0-2.2,1.943c0,1.073.9,1.61,1.684,2.085.656.393,1.223.736,1.223,1.284,0,.264-.254.676-.931.676a2.136,2.136,0,0,1-1.643-.9l-.29-.375v1.769l.063.049a3.131,3.131,0,0,0,1.979.65,1.945,1.945,0,0,0,2.044-1.977C201.324,39.673,200.325,39.112,199.516,38.659Z" transform="translate(-28.066 -5.089)" fill="#fff" fill-rule="evenodd"/>
</svg>
