<svg id="Palm_hills" data-name="Palm hills" xmlns="http://www.w3.org/2000/svg" width="202.009" height="54.916" viewBox="0 0 202.009 54.916">
  <path id="Path_378" data-name="Path 378" d="M54.915,27.46l-27.458,0,0,27.458Z" fill="#90002b" fill-rule="evenodd"/>
  <path id="Path_379" data-name="Path 379" d="M27.459,0l0,27.456,27.458,0Z" fill="#a70236" fill-rule="evenodd"/>
  <path id="Path_380" data-name="Path 380" d="M0,27.458H27.456L27.458,0Z" fill="#d31048" fill-rule="evenodd"/>
  <path id="Path_381" data-name="Path 381" d="M27.458,54.916l0-27.458H0Z" fill="#a70236" fill-rule="evenodd"/>
  <path id="Path_382" data-name="Path 382" d="M35.3,39.225,27.453,30.4l-7.84,8.826,7.84-7.1Z" fill="#fffffe" fill-rule="evenodd"/>
  <path id="Path_383" data-name="Path 383" d="M33.342,41.187,27.453,35.3l-5.879,5.884,5.879-4.925Z" fill="#fffffe" fill-rule="evenodd"/>
  <path id="Path_384" data-name="Path 384" d="M31.38,43.148l-3.926-3.923-3.919,3.923,3.919-3.535Z" fill="#fffffe" fill-rule="evenodd"/>
  <path id="Path_385" data-name="Path 385" d="M29.419,45.109l-1.968-1.961L25.5,45.109l1.955-1.766Z" fill="#fffffe" fill-rule="evenodd"/>
  <path id="Path_386" data-name="Path 386" d="M37.263,37.264l-8.425-9.817,8.425-9.8L27.451,26.07l-9.8-8.419,8.415,9.807L17.65,37.264l9.8-8.435Z" fill="#fffffe" fill-rule="evenodd"/>
  <path id="Path_387" data-name="Path 387" d="M11.768,27.445,9.807,25.5l1.768,1.965L9.807,29.419Z" fill="#fffffe" fill-rule="evenodd"/>
  <path id="Path_388" data-name="Path 388" d="M15.69,27.447l-3.922-3.912L15.3,27.468,11.768,31.38Z" fill="#fffffe" fill-rule="evenodd"/>
  <path id="Path_389" data-name="Path 389" d="M19.612,27.448l-5.884-5.874,4.9,5.884-4.9,5.884Z" fill="#fffffe" fill-rule="evenodd"/>
  <path id="Path_390" data-name="Path 390" d="M23.535,27.447l-7.845-7.835,6.3,7.847L15.691,35.3Z" fill="#fffffe" fill-rule="evenodd"/>
  <path id="Path_391" data-name="Path 391" d="M44.129,27.466l1.961,1.953-1.769-1.953L46.09,25.5Z" fill="#fffffe" fill-rule="evenodd"/>
  <path id="Path_392" data-name="Path 392" d="M40.205,27.468l3.921,3.912L40.6,27.456l3.528-3.921Z" fill="#fffffe" fill-rule="evenodd"/>
  <path id="Path_393" data-name="Path 393" d="M35.3,27.454l5.884,5.887-4.905-5.884,4.905-5.884Z" fill="#fffffe" fill-rule="evenodd"/>
  <path id="Path_394" data-name="Path 394" d="M39.226,19.612l-7.845,7.855L39.226,35.3l-6.3-7.835Z" fill="#fffffe" fill-rule="evenodd"/>
  <path id="Path_395" data-name="Path 395" d="M35.3,14.709l-7.85,7.1-7.84-7.1,7.843,8.826Z" fill="#fffffe" fill-rule="evenodd"/>
  <path id="Path_396" data-name="Path 396" d="M33.342,12.748l-5.889,4.919-5.879-4.919,5.879,5.884Z" fill="#fffffe" fill-rule="evenodd"/>
  <path id="Path_397" data-name="Path 397" d="M31.38,10.787,27.455,14.32l-3.92-3.533L27.46,14.71Z" fill="#fffffe" fill-rule="evenodd"/>
  <path id="Path_398" data-name="Path 398" d="M29.419,8.825l-1.967,1.769L25.5,8.825l1.961,1.961Z" fill="#fffffe" fill-rule="evenodd"/>
  <path id="Path_399" data-name="Path 399" d="M79.06,18.306H76.713V13.917h2.444c2.145,0,2.465,1.354,2.465,2.162C81.623,17.493,80.688,18.306,79.06,18.306Zm.1-7.3H73.547v17.4h3.166v-7.2h2.123c4.447,0,6.032-2.6,6.032-5.037C84.867,13.677,83.366,11.011,79.158,11.011Z" fill="#2c2a26" fill-rule="evenodd"/>
  <path id="Path_400" data-name="Path 400" d="M92.26,15.911,94.354,20.6H90.308Zm-5.313,12.5L89.059,23.5h6.625l2.234,4.908h3.288l-7.827-17.5h-2.2l-7.52,17.5Z" fill="#2c2a26" fill-rule="evenodd"/>
  <path id="Path_401" data-name="Path 401" d="M105.715,25.5V11.011h-3.17v17.4h10.732V25.5Z" fill="#2c2a26" fill-rule="evenodd"/>
  <path id="Path_402" data-name="Path 402" d="M128.742,28.412h3.166v-17.4h-2.795l-5.392,6.607-5.366-6.607h-2.826v17.4H118.7V16.1l4.637,5.8h.764l4.639-5.8Z" fill="#2c2a26" fill-rule="evenodd"/>
  <path id="Path_403" data-name="Path 403" d="M143.277,28.412V21.163H151.9v7.249h3.17v-17.4H151.9v7.247h-8.619V11.011h-3.17v17.4Z" fill="#2c2a26" fill-rule="evenodd"/>
  <path id="Path_404" data-name="Path 404" d="M159.018,28.412h3.166v-17.4h-3.166Z" fill="#2c2a26" fill-rule="evenodd"/>
  <path id="Path_405" data-name="Path 405" d="M177.309,28.412V25.5h-7.564V11.011h-3.167v17.4Z" fill="#2c2a26" fill-rule="evenodd"/>
  <path id="Path_406" data-name="Path 406" d="M190.322,28.412V25.5h-7.56V11.011h-3.17v17.4Z" fill="#2c2a26" fill-rule="evenodd"/>
  <path id="Path_407" data-name="Path 407" d="M202.009,23.737c0-3.2-2.491-4.6-4.491-5.72-1.478-.83-2.753-1.546-2.753-2.722,0-.943.933-1.6,2.272-1.6a5.3,5.3,0,0,1,3.667,1.632l.641.6V12.136l-.167-.111a7.182,7.182,0,0,0-3.942-1.238c-3.323,0-5.466,1.9-5.466,4.821,0,2.661,2.226,4,4.185,5.174,1.642.984,3.059,1.84,3.059,3.226,0,.666-.635,1.719-2.345,1.719a5.282,5.282,0,0,1-4.122-2.274l-.68-.861V26.9l.153.117a7.859,7.859,0,0,0,4.92,1.612A4.824,4.824,0,0,0,202.009,23.737Z" fill="#2c2a26" fill-rule="evenodd"/>
  <path id="Path_408" data-name="Path 408" d="M79.594,39.945a2.677,2.677,0,0,1-2.942,2.7h-1.6V37.248H76.6C78.808,37.248,79.594,38.641,79.594,39.945Zm-2.819-4.081H73.547v8.159h3.246a4.119,4.119,0,0,0,4.343-4.078A4.039,4.039,0,0,0,76.776,35.864Z" fill="#858581" fill-rule="evenodd"/>
  <path id="Path_409" data-name="Path 409" d="M87.813,42.643V40.6h3.205V39.22H87.813V37.248h3.319V35.865H86.3v8.158h4.932v-1.38Z" fill="#858581" fill-rule="evenodd"/>
  <path id="Path_410" data-name="Path 410" d="M100.975,35.864l-2.213,5.172-2.229-5.172H94.992L98.543,44.1h.484l3.475-8.233Z" fill="#858581" fill-rule="evenodd"/>
  <path id="Path_411" data-name="Path 411" d="M108.066,42.643V40.6h3.206V39.22h-3.206V37.248h3.319V35.865h-4.824v8.158h4.928v-1.38Z" fill="#858581" fill-rule="evenodd"/>
  <path id="Path_412" data-name="Path 412" d="M118.164,42.643V35.865h-1.51v8.158H121.7v-1.38Z" fill="#858581" fill-rule="evenodd"/>
  <path id="Path_413" data-name="Path 413" d="M130.244,42.724a2.78,2.78,0,1,1,2.864-2.779A2.725,2.725,0,0,1,130.244,42.724Zm0-6.965a4.191,4.191,0,1,0,4.407,4.187A4.194,4.194,0,0,0,130.244,35.759Z" fill="#858581" fill-rule="evenodd"/>
  <path id="Path_414" data-name="Path 414" d="M142.08,39.276H141V37.248h1.13c.995,0,1.141.622,1.141.992C143.269,38.9,142.835,39.276,142.08,39.276Zm.048-3.411h-2.64v8.159H141V40.66h.978c2.088,0,2.832-1.225,2.832-2.371A2.368,2.368,0,0,0,142.128,35.864Z" fill="#858581" fill-rule="evenodd"/>
  <path id="Path_415" data-name="Path 415" d="M155.87,35.864l-2.51,3.083-2.512-3.083h-1.334v8.158h1.5V38.288l2.153,2.691h.367l2.154-2.691v5.734h1.5V35.864Z" fill="#858581" fill-rule="evenodd"/>
  <path id="Path_416" data-name="Path 416" d="M163.954,42.643V40.6h3.2V39.22h-3.2V37.248h3.315V35.865h-4.824v8.158h4.929v-1.38Z" fill="#858581" fill-rule="evenodd"/>
  <path id="Path_417" data-name="Path 417" d="M179.2,35.864v5.706l-5.033-5.706H173v8.158h1.436V38.351l4.961,5.672h1.239V35.864Z" fill="#858581" fill-rule="evenodd"/>
  <path id="Path_418" data-name="Path 418" d="M185.9,35.864v1.383h2.711v6.775h1.507V37.248h2.71V35.864Z" fill="#858581" fill-rule="evenodd"/>
  <path id="Path_419" data-name="Path 419" d="M199.9,39.14c-.686-.387-1.277-.721-1.277-1.262,0-.431.43-.733,1.049-.733a2.468,2.468,0,0,1,1.706.757l.32.3v-1.81l-.083-.054a3.376,3.376,0,0,0-1.851-.579,2.3,2.3,0,0,0-2.568,2.266c0,1.251,1.046,1.877,1.963,2.431.765.458,1.426.858,1.426,1.5,0,.308-.3.789-1.086.789a2.49,2.49,0,0,1-1.916-1.053l-.338-.437v2.063l.073.057a3.651,3.651,0,0,0,2.307.757,2.268,2.268,0,0,0,2.383-2.305C202.009,40.322,200.844,39.669,199.9,39.14Z" fill="#858581" fill-rule="evenodd"/>
</svg>
