<svg id="Sodic_White" data-name="Sodic White" xmlns="http://www.w3.org/2000/svg" width="157.367" height="38.036" viewBox="0 0 157.367 38.036">
  <g id="Group_16" data-name="Group 16">
    <path id="Path_13" data-name="Path 13" d="M157.346,2.476,157.2,2.44l-1.016-.34-1.016-.285L154.153,1.6l-1-.178a19.484,19.484,0,0,0-7.591.411l-.854.23-.84.288-.818.32a16.292,16.292,0,0,0-8.913,8.917l-.107.3L134,11.96l-.022.038v-.109c.022-3.434-.233-6.858-.214-10.289V1.584h-10.9V1.62c-.15,3.437-.019,6.921-.232,10.342v.019l-.016-.039a12.187,12.187,0,0,0-6.31-7.63l-1-.463c-6.72-2.772-14.262-2.216-21.372-2.087L93.16,1.8h-.052v.035c-.071,1.753-.027,3.434.036,5.206v1.55l-.016.767a21.235,21.235,0,0,1-.232,2.6l-.016.019C89.718,3.613,81.932.375,73.414,1.346l-.123.019-.446.052c-7.654,1.086-12.893,7-13.78,14.561l-.017.1-.019-.016-.052-.074-.252-.214a7.792,7.792,0,0,0-2.85-1.6l-.323-.107-.356-.11c-1.7-.594-5.366-.646-6.7-1.944l-.142-.194-.107-.194-.071-.235-.019-.23c-.046-.964.7-1.473,1.588-1.621l.391-.071.394-.038c2.888-.085,3.969.75,6.433,2.1l.5.252v-.036l.014-.071.055-.162.178-.641c.682-2.2,1.577-4.289,2.461-6.419l.233-.57V3.847l-.036-.035-.093-.036L60.1,3.669l-.353-.2-.767-.378-.786-.34-.838-.318-.873-.3-.909-.252-.945-.233a21.1,21.1,0,0,0-3.635-.427L50.438,1.2h-.572l-.569.016-.589.022-1.21.1h-.019l-.019.019h-.107l-.142.019-.589.1-.6.126-.621.159a14.6,14.6,0,0,0-3.532,1.482l-.5.32-.446.34-.41.34-.356.353v14.28l.016.019.126.107.5.4.55.373.285.181.3.156.32.162.339.161a10.474,10.474,0,0,0,2.461.731l.531.088.539.055a9.856,9.856,0,0,1,2.965.605l.162.088.175.126.142.126.109.143.107.159c.657,1.219-.452,2.271-1.588,2.588l-.249.088-.268.071c-2.157.438-4.566-.759-6.469-1.657l-.463-.233-.427-.2-.109-.052-.052-.019v9.2h.016c6.778,2.183,18.328,1.427,20.89-6.65l.036-.107.036.052c6.975,11.629,27.246,10.227,31.977-2.747V33.056h.019c12.105-.693,23.392,3.635,29.694-9.881l.036-.071v9.952h11.12v-.09l.022-.181.017-.729V30.542l-.074-3.084v-.764l.022-.753.014-.729.055-.7.071-.7.093-.66.014-.038V23.1l.019.036c2.872,9.52,14.457,12.133,23.1,9.257l.036-.019V21.288l-.055.055-.123.123c-3.627,3.393-11.372,2.541-12.442-2.867l-.055-.34-.033-.359c-.389-4.779,3.961-7.614,8.377-6.633l.482.123.446.161.249.11.268.14.285.2.282.175a12.3,12.3,0,0,1,1.645,1.249l.12.088.142.09c.268.112.419-.027.411-.3V2.492ZM82.1,20.114l-.164.359-.175.356-.142.285-.356.5a6.323,6.323,0,0,1-8.379,1.249l-.23-.178-.252-.2a6.466,6.466,0,0,1-.909-8.594l.339-.408.392-.372.394-.361A6.2,6.2,0,0,1,82.1,20.114Zm23.365,3.8-.5-.055-.5-.071V11.319h.074c4.008.036,6.879.844,7.608,5.174l.036.375.019.373C112.175,21.069,109.47,24.221,105.46,23.914Z" fill="#f4f4f4"/>
  </g>
  <path id="Path_14" data-name="Path 14" d="M24.813,72.591v27.921l18.752,5.708V78.42Z" transform="translate(-24.813 -68.184)" fill="#f4f4f4"/>
  <path id="Path_15" data-name="Path 15" d="M18.752,10.235v27.8l18.623-5.672V4.407Z" fill="#fcfcfc"/>
  <path id="Path_16" data-name="Path 16" d="M43.636,66.682l-18.823,4.4L43.565,76.91l18.623-5.828Z" transform="translate(-24.813 -66.682)" fill="#fff"/>
</svg>
