<svg xmlns="http://www.w3.org/2000/svg" width="24" height="20" viewBox="0 0 24 20">
  <path id="Path_36" data-name="Path 36" d="M17.306,4A1.907,1.907,0,0,0,15.43,5.625a2.757,2.757,0,0,0-1.034.361A2.88,2.88,0,0,0,13,8.467v.4h.8V9.6h.8V8.867h.8V9.6h.8V8.867H17V9.6h.8V8.867h.8v-.4a2.88,2.88,0,0,0-1.4-2.482,2.746,2.746,0,0,0-.969-.348,1.091,1.091,0,0,1,1.07-.838h3.387A1.1,1.1,0,0,1,21.8,5.91V13.6H11.4a.4.4,0,0,0-.011-.142A1.8,1.8,0,0,0,9.65,12.09a1.712,1.712,0,0,0-.344.068,1.744,1.744,0,0,0-1.518-1.036v0a1.781,1.781,0,0,0-1.525.9,1.584,1.584,0,0,0-.616.281,2.214,2.214,0,0,0-1.584-.694A2.288,2.288,0,0,0,1.833,13.6H1.8a.808.808,0,0,0-.8.8V16a.808.808,0,0,0,.8.8V20A3.2,3.2,0,0,0,5,23.2V24h.8v-.8H20.2V24H21v-.8A3.2,3.2,0,0,0,24.2,20V16.8A.808.808,0,0,0,25,16V14.4a.808.808,0,0,0-.8-.8H22.6V5.91A1.913,1.913,0,0,0,20.694,4ZM15.8,6.4a1.942,1.942,0,0,1,1,.277,2.028,2.028,0,0,1,.9,1.392H13.9a2.029,2.029,0,0,1,.9-1.392,1.942,1.942,0,0,1,1-.277Zm-2,4v.8h.8v-.8Zm1.6,0v.8h.8v-.8Zm1.6,0v.8h.8v-.8ZM7.787,11.923a1,1,0,0,1,.962.77.4.4,0,0,0,.538.269.961.961,0,0,1,1.3.638H2.638a1.473,1.473,0,0,1,1.425-1.194,1.431,1.431,0,0,1,1.156.6l.018.024a.4.4,0,0,0,.71.084.8.8,0,0,1,.6-.338.4.4,0,0,0,.379-.326.981.981,0,0,1,.859-.528ZM13.8,12v.8h.8V12Zm1.6,0v.8h.8V12ZM17,12v.8h.8V12ZM1.8,14.4H24.2V16H1.8Zm.8,2.4H23.4V20A2.387,2.387,0,0,1,21,22.4H5A2.387,2.387,0,0,1,2.6,20Z" transform="translate(-1 -4)" fill="#f15841"/>
</svg>
