<svg xmlns="http://www.w3.org/2000/svg" width="24" height="17.032" viewBox="0 0 24 17.032">
  <path id="Path_25" data-name="Path 25" d="M24.613,15.419H21.9V13.871h1.161a.387.387,0,0,0,.384-.435l-.387-3.1A.387.387,0,0,0,22.677,10H20.355a.387.387,0,0,0-.384.339l-.387,3.1a.387.387,0,0,0,.384.435h1.161v1.548H19.194V14.258a2.325,2.325,0,0,0-2.323-2.323H5.258a2.325,2.325,0,0,0-2.323,2.323v4.3a1.939,1.939,0,0,0-1.548,1.9v1.935A.387.387,0,0,0,1,22.774v3.871a.387.387,0,0,0,.387.387H2.548a.387.387,0,0,0,.367-.265L3.6,24.71H18.527l.686,2.058a.387.387,0,0,0,.367.265h1.161a.387.387,0,0,0,.387-.387V25.1h3.484A.387.387,0,0,0,25,24.71v-8.9A.387.387,0,0,0,24.613,15.419ZM20.7,10.774h1.639l.29,2.323h-2.22Zm3.529,5.419v2.323H19.194V16.194ZM5.258,12.71H16.871a1.548,1.548,0,0,1,1.548,1.548v4.258h-.845a1.148,1.148,0,0,0,.071-.387V16.581a1.161,1.161,0,0,0-1.161-1.161H13a1.161,1.161,0,0,0-1.161,1.161v1.548a1.148,1.148,0,0,0,.071.387H10.219a1.148,1.148,0,0,0,.071-.387V16.581a1.161,1.161,0,0,0-1.161-1.161H5.645a1.161,1.161,0,0,0-1.161,1.161v1.548a1.148,1.148,0,0,0,.071.387H3.71V14.258A1.548,1.548,0,0,1,5.258,12.71Zm7.355,5.419V16.581A.387.387,0,0,1,13,16.194h3.484a.387.387,0,0,1,.387.387v1.548a.387.387,0,0,1-.387.387H13A.387.387,0,0,1,12.613,18.129Zm-7.355,0V16.581a.387.387,0,0,1,.387-.387H9.129a.387.387,0,0,1,.387.387v1.548a.387.387,0,0,1-.387.387H5.645A.387.387,0,0,1,5.258,18.129Zm-3.1,2.323A1.161,1.161,0,0,1,3.323,19.29H18.806a1.161,1.161,0,0,1,1.161,1.161v1.935H2.161Zm.108,5.806h-.5V24.71H2.785Zm1.053-2.323H1.774v-.774H20.355v.774ZM19.86,26.258l-.516-1.548h1.011v1.548Zm1.269-1.935V22.774a.387.387,0,0,0-.387-.387V20.452a1.915,1.915,0,0,0-.4-1.161h3.881v5.032Z" transform="translate(-1 -10)" fill="#f15841"/>
</svg>
