<svg xmlns="http://www.w3.org/2000/svg" width="20.783" height="21.46" viewBox="0 0 20.783 21.46">
  <g id="Group_2827" data-name="Group 2827" transform="translate(-7.094 -12.766)">
    <g id="Group_2828" data-name="Group 2828" transform="translate(7.094 12.766)">
      <g id="Group_2825" data-name="Group 2825">
        <g id="Group_2829" data-name="Group 2829">
          <g id="Group_2823" data-name="Group 2823">
            <g id="Group_2830" data-name="Group 2830">
              <path id="Path_375" data-name="Path 375" d="M38.472,214.242a2.392,2.392,0,0,1-1.917-1.562,2.417,2.417,0,0,1,2.966-3.153,2.313,2.313,0,0,1,1.681,1.925,3.189,3.189,0,0,1,.038.516c.006.345,0,.69,0,1.051a17.737,17.737,0,0,1,8.3,0c0-.385,0-.763,0-1.141a2.416,2.416,0,0,1,.594-1.606,2.381,2.381,0,0,1,2.785-.656,2.42,2.42,0,0,1-.476,4.6l-.134.026c0,.211,0,.425,0,.639,0,.267,0,.534,0,.8a1.412,1.412,0,0,1-1.382,1.364c0,.3,0,.6,0,.9,0,.364-.11.471-.481.472-.274,0-.548-.006-.822,0a.416.416,0,0,1-.428-.261c-.155-.325-.325-.642-.477-.969a.247.247,0,0,0-.265-.159q-3.071.006-6.142,0a.233.233,0,0,0-.247.152c-.153.326-.324.643-.478.968a.417.417,0,0,1-.424.268c-.3-.007-.606,0-.908,0a.353.353,0,0,1-.4-.4c0-.323,0-.646,0-.9a5.769,5.769,0,0,1-.865-.408,1.235,1.235,0,0,1-.517-1.046c-.007-.468,0-.936,0-1.42m1.208-.643c.255-.105.5-.2.728-.305a.254.254,0,0,0,.134-.174c.01-.461.019-.923,0-1.383a1.728,1.728,0,1,0-1.8,1.827c.312.018.42.13.42.447,0,.519,0,1.038,0,1.557a.7.7,0,0,0,.763.767q5.47,0,10.939,0a.7.7,0,0,0,.753-.755c0-.519,0-1.038,0-1.557,0-.332.1-.439.43-.458a1.73,1.73,0,0,0,.078-3.451,1.691,1.691,0,0,0-1.843,1.43,13.329,13.329,0,0,0-.014,1.713c.121.047.263.1.4.158s.28.127.428.195l-.314.556a15.675,15.675,0,0,0-10.79,0l-.317-.565m.877,4.12a2.215,2.215,0,0,0,.27,0c.078-.01.194-.016.224-.066.117-.191.206-.4.31-.611h-.8Zm8.88-.685c.256.686.325.743.784.66v-.66Z" transform="translate(-36.386 -196.954)" fill="#f15841"/>
              <path id="Path_376" data-name="Path 376" d="M143.506,85.57c0,.306,0,.615,0,.924s-.121.438-.448.439c-.288,0-.577,0-.865,0a.407.407,0,0,1-.413-.251c-.16-.33-.331-.656-.487-.988a.226.226,0,0,0-.249-.15c-.208.01-.416,0-.639,0v-.693h3a.7.7,0,0,0,.789-.785q0-8.554,0-17.108a.705.705,0,0,0-.782-.793h-4.4v7.251h-.7V66.17h-.255c-1.355,0-2.711.017-4.066-.008a.766.766,0,0,0-.873.883,1.38,1.38,0,0,1,0,.146h-.665a1.393,1.393,0,0,1,1.347-1.711q4.855-.009,9.711,0a1.368,1.368,0,0,1,1.37,1.382c.007,1.11,0,2.22,0,3.331,0,4.571-.01,9.141.01,13.712a1.5,1.5,0,0,1-1.394,1.665M142,85.56c.068.14.126.261.186.382.167.336.233.364.615.267V85.56Z" transform="translate(-124.117 -65.476)" fill="#f15841"/>
              <path id="Path_377" data-name="Path 377" d="M64,86.3v-.682h.68V86.3h2.675c.317,0,.425.1.451.418q.165,1.949.331,3.9c.034.4-.077.529-.478.529H64.7v.678H64v-.678H60.99c-.355,0-.479-.136-.449-.495q.166-1.981.335-3.962c.023-.273.14-.387.414-.387.814,0,1.629,0,2.443,0H64m3.424,4.141L67.136,87H61.544l-.286,3.437Z" transform="translate(-58.447 -83.874)" fill="#f15841"/>
              <path id="Path_378" data-name="Path 378" d="M61.189,168.594h-.674c0-.654-.049-1.3.013-1.944a1.319,1.319,0,0,1,1.369-1.162q5.523,0,11.046,0a1.374,1.374,0,0,1,1.394,1.38c.007.568,0,1.137,0,1.719h-.692v-1.531c0-.636-.24-.877-.87-.877H62.033c-.589,0-.843.253-.844.839,0,.518,0,1.036,0,1.575" transform="translate(-58.41 -156.835)" fill="#f15841"/>
              <rect id="Rectangle_149" data-name="Rectangle 149" width="0.666" height="0.666" transform="translate(6.942 10.746)" fill="#f15841"/>
              <rect id="Rectangle_150" data-name="Rectangle 150" width="0.674" height="0.663" transform="translate(10.402 10.746)" fill="#f15841"/>
              <rect id="Rectangle_151" data-name="Rectangle 151" width="0.67" height="0.666" transform="translate(5.214 12.471)" fill="#f15841"/>
              <rect id="Rectangle_152" data-name="Rectangle 152" width="0.663" height="0.667" transform="translate(8.677 12.474)" fill="#f15841"/>
              <rect id="Rectangle_153" data-name="Rectangle 153" width="0.658" height="0.674" transform="translate(12.139 12.464)" fill="#f15841"/>
              <rect id="Rectangle_154" data-name="Rectangle 154" width="0.67" height="0.666" transform="translate(6.944 14.201)" fill="#f15841"/>
              <rect id="Rectangle_155" data-name="Rectangle 155" width="0.663" height="0.667" transform="translate(10.408 14.205)" fill="#f15841"/>
              <path id="Path_384" data-name="Path 384" d="M53.545,225.506a1.037,1.037,0,1,1-1.035,1.051,1.041,1.041,0,0,1,1.035-1.051m.346,1.043a.344.344,0,1,0-.35.339.348.348,0,0,0,.35-.339" transform="translate(-51.115 -211.661)" fill="#f15841"/>
              <path id="Path_385" data-name="Path 385" d="M204.512,226.54a1.037,1.037,0,1,1,1.024,1.039,1.041,1.041,0,0,1-1.024-1.039m1.381-.005a.344.344,0,1,0-.337.352.348.348,0,0,0,.337-.352" transform="translate(-189.967 -211.66)" fill="#f15841"/>
            </g>
          </g>
        </g>
      </g>
    </g>
  </g>
</svg>
