<svg xmlns="http://www.w3.org/2000/svg" width="215.144" height="32.063" viewBox="0 0 215.144 32.063">
  <g id="Group_2818" data-name="Group 2818" transform="translate(-389 -948.969)">
    <path id="Path_7" data-name="Path 7" d="M110,73.21c.188-.563.423-1.174.563-1.737a12.679,12.679,0,0,1,6.666-9.154c2.066-1.08,4.225-2.019,6.29-3.145,1.878-1.08,3.615-2.347,5.352-3.474.939,2.629-.047,5.3-3.051,7.135-2.676,1.643-5.586,2.911-8.027,4.788a15.76,15.76,0,0,0-4.554,5.68c-1.221,2.582.094,5.07,2.817,6.009,4.882,1.643,9.811,1.831,14.553-.7,3.849-2.112,4.366-4.319,2.019-8.027a6.963,6.963,0,0,1-.939-1.737c3.521,1.925,4.741,5.023,4.6,8.872-.094,3.9-1.6,6.995-5.4,8.544a42.037,42.037,0,0,1-4.882,1.5h-5.633c-.657-.188-1.314-.422-1.972-.563-2.77-.7-5.258-1.925-6.666-4.554a38.522,38.522,0,0,1-1.69-4.272C110,76.637,110,74.947,110,73.21Z" transform="translate(279 893.269)" fill="#fff" opacity="0.303"/>
    <path id="Path_8" data-name="Path 8" d="M304.989,75.279c1.08-3.38,2.347-6.713,3.239-10.14.563-2.206,1.643-2.957,3.9-2.864a2.667,2.667,0,0,1,2.911,2.253,72.315,72.315,0,0,0,3.943,10.7c.8-2.535,1.6-5.023,2.347-7.558,1.69-5.633,1.69-5.633,7.511-5.3a9.447,9.447,0,0,1,1.08.235c-.235.845-.422,1.549-.657,2.3-2.159,6.431-4.413,12.816-6.478,19.294-.516,1.549-1.127,2.3-2.911,2.253-5.117-.188-3.755.61-5.4-3.943a51.947,51.947,0,0,0-3.051-7.652c-1.033,3.1-2.159,6.15-3,9.248-.469,1.69-1.221,2.394-3.051,2.347-4.929-.188-3.755.61-5.258-3.756-2.3-6.619-4.46-13.238-6.807-20.233a56.043,56.043,0,0,1,6.337.094c.563.047,1.314.986,1.5,1.643,1.221,3.662,2.3,7.417,3.427,11.126C304.66,75.232,304.8,75.232,304.989,75.279Z" transform="translate(181.748 889.791)" fill="#fff" opacity="0.303"/>
    <path id="Path_9" data-name="Path 9" d="M202.432,74.219c0-3.1.141-6.2-.047-9.248-.141-2.112.657-2.676,2.676-2.582,4.6.188,4.178-.563,4.178,4.131,0,5.774-.094,11.548.047,17.322.047,2.112-.657,2.629-2.676,2.629a5.826,5.826,0,0,1-5.211-2.347c-2.206-2.817-4.694-5.4-7.089-8.121-.469-.563-.986-1.08-1.5-1.6-.188.094-.376.141-.61.235,0,3.1-.094,6.15.047,9.248.094,1.878-.423,2.629-2.441,2.535-5.352-.188-4.413.563-4.46-4.46-.047-5.774.047-11.548-.047-17.322-.047-1.784.563-2.206,2.3-2.253a6.19,6.19,0,0,1,5.821,2.535c2.159,2.864,4.741,5.4,7.089,8.121a11.355,11.355,0,0,1,.986,1.831A6.709,6.709,0,0,1,202.432,74.219Z" transform="translate(239.052 889.725)" fill="#fff" opacity="0.303"/>
    <path id="Path_10" data-name="Path 10" d="M396.707,65.336a36.439,36.439,0,0,1-3.427,3,2.84,2.84,0,0,1-2.159.235c-1.878-.516-3.662-1.455-5.539-1.784a6.948,6.948,0,0,0-8.262,6.29,6.866,6.866,0,0,0,7.042,7.793,11.348,11.348,0,0,0,4.366-.657c.7-.282,1.127-1.6,1.314-2.488.047-.235-1.127-1.033-1.737-1.127-1.69-.141-3.427-.047-5.3-.047V71.72h13.708c0,3.427.047,6.807-.047,10.234,0,.422-.516.939-.939,1.174-5.445,3.145-11.173,4.46-17.275,2.206-5.586-2.066-9.013-7.511-8.262-12.816A13.5,13.5,0,0,1,382.53,61.2C387.553,60.735,392.107,62.237,396.707,65.336Z" transform="translate(141.011 890.393)" fill="#fff" opacity="0.303"/>
    <path id="Path_11" data-name="Path 11" d="M264.986,67.978H252.311c-1.267,0-2.112.188-2.066,1.737,0,1.361.422,2.019,1.878,1.925,2.253-.094,4.507-.047,6.572-.047.235.376.376.516.376.657.516,4.554.516,4.554-4.037,4.554-.845,0-1.737.047-2.582,0-1.549-.141-2.253.329-2.253,2.066,0,1.831.939,2.019,2.347,1.972,4.366-.047,8.732,0,13.285,0V86.38h-6.009c-4.788,0-9.53-.047-14.318.047-1.549.047-2.253-.376-2.206-2.066.094-6.666,0-13.285.094-19.951,0-.657.8-1.878,1.267-1.925,6.713-.141,13.426-.094,20.327-.094Z" transform="translate(208.279 889.722)" fill="#fff" opacity="0.303"/>
    <path id="Path_12" data-name="Path 12" d="M464.022,80.831h12.722v5.492H454.21a5.221,5.221,0,0,1,1.267-5.445c3.286-3.427,6.431-7.042,9.623-10.609.516-.563.986-1.174,1.878-2.253-3.568,0-6.619.047-9.624-.047-.892,0-2.394-.235-2.488-.61a17.305,17.305,0,0,1-.047-4.413c0-.188.61-.469.939-.469,6.948-.047,13.9,0,20.843,0a5.455,5.455,0,0,1-1.361,5.727c-3.239,3.38-6.29,6.948-9.436,10.422C465.336,79.188,464.867,79.8,464.022,80.831Z" transform="translate(96.511 889.684)" fill="#fff" opacity="0.303"/>
    <path id="Path_13" data-name="Path 13" d="M535.511,86.37a45.071,45.071,0,0,1-6.244-.094c-.751-.094-1.6-1.08-1.972-1.878a2.46,2.46,0,0,0-2.676-1.69c-1.925.094-3.9.094-5.868,0-2.253-.141-4.225-.094-4.835,2.723-.094.376-.939.845-1.408.892-1.878.094-3.755.047-6.009.047a23.7,23.7,0,0,1,.939-2.253c3.239-6.572,6.572-13.144,9.67-19.763.845-1.784,2.019-2.066,3.709-1.972,1.643.094,3.051-.141,3.99,1.878,3.1,6.713,6.478,13.332,9.764,20A21.331,21.331,0,0,1,535.511,86.37ZM521.146,70.738c-.188,0-.422.047-.61.047-.986,2.3-2.019,4.647-3.1,7.135h6.9C523.165,75.292,522.132,73.038,521.146,70.738Z" transform="translate(68.632 889.732)" fill="#fff" opacity="0.303"/>
    <path id="Path_14" data-name="Path 14" d="M440.173,62.473V86.415c-1.972,0-3.849.047-5.774-.047-.376-.047-.939-.845-.939-1.267q-.07-10.562,0-21.125a1.939,1.939,0,0,1,1.033-1.408A56.613,56.613,0,0,1,440.173,62.473Z" transform="translate(107.403 889.687)" fill="#fff" opacity="0.303"/>
  </g>
</svg>
