<svg xmlns="http://www.w3.org/2000/svg" viewBox="82 0 192 47">
  <g id="Group_13" data-name="Group 13" transform="translate(-47 -327)">
    <rect id="Rectangle_9" data-name="Rectangle 9" width="2" height="47" transform="translate(129 327)" fill="rgba(255,255,255,0.39)"/>
    <rect id="Rectangle_79" data-name="Rectangle 79" width="2" height="38" transform="translate(269 336)" fill="rgba(255,255,255,0.39)"/>
    <rect id="Rectangle_37" data-name="Rectangle 37" width="2" height="47" transform="translate(185 327)" fill="rgba(255,255,255,0.39)"/>
    <rect id="Rectangle_58" data-name="Rectangle 58" width="2" height="47" transform="translate(227 327)" fill="rgba(255,255,255,0.39)"/>
    <rect id="Rectangle_22" data-name="Rectangle 22" width="2" height="47" transform="translate(155 327)" fill="rgba(255,255,255,0.39)"/>
    <rect id="Rectangle_80" data-name="Rectangle 80" width="2" height="38" transform="translate(295 336)" fill="rgba(255,255,255,0.39)"/>
    <rect id="Rectangle_39" data-name="Rectangle 39" width="2" height="47" transform="translate(211 327)" fill="rgba(255,255,255,0.39)"/>
    <rect id="Rectangle_60" data-name="Rectangle 60" width="2" height="47" transform="translate(253 327)" fill="rgba(255,255,255,0.39)"/>
    <rect id="Rectangle_29" data-name="Rectangle 29" width="2" height="47" transform="translate(157 327)" fill="rgba(255,255,255,0.39)"/>
    <rect id="Rectangle_81" data-name="Rectangle 81" width="2" height="38" transform="translate(297 336)" fill="rgba(255,255,255,0.39)"/>
    <rect id="Rectangle_51" data-name="Rectangle 51" width="2" height="47" transform="translate(213 327)" fill="rgba(255,255,255,0.39)"/>
    <rect id="Rectangle_72" data-name="Rectangle 72" width="2" height="47" transform="translate(255 327)" fill="rgba(255,255,255,0.39)"/>
    <rect id="Rectangle_36" data-name="Rectangle 36" width="2" height="47" transform="translate(171 327)" fill="rgba(255,255,255,0.39)"/>
    <rect id="Rectangle_82" data-name="Rectangle 82" width="2" height="38" transform="translate(311 336)" fill="rgba(255,255,255,0.39)"/>
    <rect id="Rectangle_10" data-name="Rectangle 10" width="2" height="42" transform="translate(131 332)" fill="rgba(255,255,255,0.39)"/>
    <rect id="Rectangle_83" data-name="Rectangle 83" width="2" height="33" transform="translate(271 341)" fill="rgba(255,255,255,0.39)"/>
    <rect id="Rectangle_38" data-name="Rectangle 38" width="2" height="42" transform="translate(187 332)" fill="rgba(255,255,255,0.39)"/>
    <rect id="Rectangle_59" data-name="Rectangle 59" width="2" height="42" transform="translate(229 332)" fill="rgba(255,255,255,0.39)"/>
    <rect id="Rectangle_21" data-name="Rectangle 21" width="2" height="42" transform="translate(153 332)" fill="rgba(255,255,255,0.39)"/>
    <rect id="Rectangle_84" data-name="Rectangle 84" width="2" height="33" transform="translate(293 341)" fill="rgba(255,255,255,0.39)"/>
    <rect id="Rectangle_40" data-name="Rectangle 40" width="2" height="42" transform="translate(209 332)" fill="rgba(255,255,255,0.39)"/>
    <rect id="Rectangle_61" data-name="Rectangle 61" width="2" height="42" transform="translate(251 332)" fill="rgba(255,255,255,0.39)"/>
    <rect id="Rectangle_28" data-name="Rectangle 28" width="2" height="42" transform="translate(159 332)" fill="rgba(255,255,255,0.39)"/>
    <rect id="Rectangle_85" data-name="Rectangle 85" width="2" height="33" transform="translate(299 341)" fill="rgba(255,255,255,0.39)"/>
    <rect id="Rectangle_52" data-name="Rectangle 52" width="2" height="42" transform="translate(215 332)" fill="rgba(255,255,255,0.39)"/>
    <rect id="Rectangle_73" data-name="Rectangle 73" width="2" height="42" transform="translate(257 332)" fill="rgba(255,255,255,0.39)"/>
    <rect id="Rectangle_35" data-name="Rectangle 35" width="2" height="42" transform="translate(173 332)" fill="rgba(255,255,255,0.39)"/>
    <rect id="Rectangle_86" data-name="Rectangle 86" width="2" height="33" transform="translate(313 341)" fill="rgba(255,255,255,0.39)"/>
    <rect id="Rectangle_11" data-name="Rectangle 11" width="2" height="40" transform="translate(133 334)" fill="rgba(255,255,255,0.39)"/>
    <rect id="Rectangle_87" data-name="Rectangle 87" width="2" height="31" transform="translate(273 343)" fill="rgba(255,255,255,0.39)"/>
    <rect id="Rectangle_41" data-name="Rectangle 41" width="2" height="40" transform="translate(189 334)" fill="rgba(255,255,255,0.39)"/>
    <rect id="Rectangle_62" data-name="Rectangle 62" width="2" height="40" transform="translate(231 334)" fill="rgba(255,255,255,0.39)"/>
    <rect id="Rectangle_20" data-name="Rectangle 20" width="2" height="40" transform="translate(151 334)" fill="rgba(255,255,255,0.39)"/>
    <rect id="Rectangle_88" data-name="Rectangle 88" width="2" height="31" transform="translate(291 343)" fill="rgba(255,255,255,0.39)"/>
    <rect id="Rectangle_42" data-name="Rectangle 42" width="2" height="40" transform="translate(207 334)" fill="rgba(255,255,255,0.39)"/>
    <rect id="Rectangle_63" data-name="Rectangle 63" width="2" height="40" transform="translate(249 334)" fill="rgba(255,255,255,0.39)"/>
    <rect id="Rectangle_27" data-name="Rectangle 27" width="2" height="40" transform="translate(161 334)" fill="rgba(255,255,255,0.39)"/>
    <rect id="Rectangle_89" data-name="Rectangle 89" width="2" height="31" transform="translate(301 343)" fill="rgba(255,255,255,0.39)"/>
    <rect id="Rectangle_53" data-name="Rectangle 53" width="2" height="40" transform="translate(217 334)" fill="rgba(255,255,255,0.39)"/>
    <rect id="Rectangle_74" data-name="Rectangle 74" width="2" height="40" transform="translate(259 334)" fill="rgba(255,255,255,0.39)"/>
    <rect id="Rectangle_34" data-name="Rectangle 34" width="2" height="40" transform="translate(175 334)" fill="rgba(255,255,255,0.39)"/>
    <rect id="Rectangle_90" data-name="Rectangle 90" width="2" height="31" transform="translate(315 343)" fill="rgba(255,255,255,0.39)"/>
    <rect id="Rectangle_12" data-name="Rectangle 12" width="2" height="41" transform="translate(135 333)" fill="rgba(255,255,255,0.39)"/>
    <rect id="Rectangle_91" data-name="Rectangle 91" width="2" height="32" transform="translate(275 342)" fill="rgba(255,255,255,0.39)"/>
    <rect id="Rectangle_43" data-name="Rectangle 43" width="2" height="41" transform="translate(191 333)" fill="rgba(255,255,255,0.39)"/>
    <rect id="Rectangle_64" data-name="Rectangle 64" width="2" height="41" transform="translate(233 333)" fill="rgba(255,255,255,0.39)"/>
    <rect id="Rectangle_19" data-name="Rectangle 19" width="2" height="41" transform="translate(149 333)" fill="rgba(255,255,255,0.39)"/>
    <rect id="Rectangle_92" data-name="Rectangle 92" width="2" height="32" transform="translate(289 342)" fill="rgba(255,255,255,0.39)"/>
    <rect id="Rectangle_44" data-name="Rectangle 44" width="2" height="41" transform="translate(205 333)" fill="rgba(255,255,255,0.39)"/>
    <rect id="Rectangle_65" data-name="Rectangle 65" width="2" height="41" transform="translate(247 333)" fill="rgba(255,255,255,0.39)"/>
    <rect id="Rectangle_26" data-name="Rectangle 26" width="2" height="41" transform="translate(163 333)" fill="rgba(255,255,255,0.39)"/>
    <rect id="Rectangle_93" data-name="Rectangle 93" width="2" height="32" transform="translate(303 342)" fill="rgba(255,255,255,0.39)"/>
    <rect id="Rectangle_54" data-name="Rectangle 54" width="2" height="41" transform="translate(219 333)" fill="rgba(255,255,255,0.39)"/>
    <rect id="Rectangle_75" data-name="Rectangle 75" width="2" height="41" transform="translate(261 333)" fill="rgba(255,255,255,0.39)"/>
    <rect id="Rectangle_33" data-name="Rectangle 33" width="2" height="41" transform="translate(177 333)" fill="rgba(255,255,255,0.39)"/>
    <rect id="Rectangle_94" data-name="Rectangle 94" width="2" height="32" transform="translate(317 342)" fill="rgba(255,255,255,0.39)"/>
    <rect id="Rectangle_13" data-name="Rectangle 13" width="2" height="37" transform="translate(137 337)" fill="rgba(255,255,255,0.39)"/>
    <rect id="Rectangle_95" data-name="Rectangle 95" width="2" height="37" transform="translate(277 337)" fill="rgba(255,255,255,0.39)"/>
    <rect id="Rectangle_45" data-name="Rectangle 45" width="2" height="37" transform="translate(193 337)" fill="rgba(255,255,255,0.39)"/>
    <rect id="Rectangle_66" data-name="Rectangle 66" width="2" height="37" transform="translate(235 337)" fill="rgba(255,255,255,0.39)"/>
    <rect id="Rectangle_18" data-name="Rectangle 18" width="2" height="37" transform="translate(147 337)" fill="rgba(255,255,255,0.39)"/>
    <rect id="Rectangle_96" data-name="Rectangle 96" width="2" height="37" transform="translate(287 337)" fill="rgba(255,255,255,0.39)"/>
    <rect id="Rectangle_46" data-name="Rectangle 46" width="2" height="37" transform="translate(203 337)" fill="rgba(255,255,255,0.39)"/>
    <rect id="Rectangle_67" data-name="Rectangle 67" width="2" height="37" transform="translate(245 337)" fill="rgba(255,255,255,0.39)"/>
    <rect id="Rectangle_25" data-name="Rectangle 25" width="2" height="37" transform="translate(165 337)" fill="rgba(255,255,255,0.39)"/>
    <rect id="Rectangle_97" data-name="Rectangle 97" width="2" height="37" transform="translate(305 337)" fill="rgba(255,255,255,0.39)"/>
    <rect id="Rectangle_55" data-name="Rectangle 55" width="2" height="37" transform="translate(221 337)" fill="rgba(255,255,255,0.39)"/>
    <rect id="Rectangle_76" data-name="Rectangle 76" width="2" height="37" transform="translate(263 337)" fill="rgba(255,255,255,0.39)"/>
    <rect id="Rectangle_32" data-name="Rectangle 32" width="2" height="37" transform="translate(179 337)" fill="rgba(255,255,255,0.39)"/>
    <rect id="Rectangle_98" data-name="Rectangle 98" width="2" height="37" transform="translate(319 337)" fill="rgba(255,255,255,0.39)"/>
    <rect id="Rectangle_14" data-name="Rectangle 14" width="2" height="38" transform="translate(139 336)" fill="rgba(255,255,255,0.39)"/>
    <rect id="Rectangle_99" data-name="Rectangle 99" width="2" height="38" transform="translate(279 336)" fill="rgba(255,255,255,0.39)"/>
    <rect id="Rectangle_47" data-name="Rectangle 47" width="2" height="38" transform="translate(195 336)" fill="rgba(255,255,255,0.39)"/>
    <rect id="Rectangle_68" data-name="Rectangle 68" width="2" height="38" transform="translate(237 336)" fill="rgba(255,255,255,0.39)"/>
    <rect id="Rectangle_17" data-name="Rectangle 17" width="2" height="38" transform="translate(145 336)" fill="rgba(255,255,255,0.39)"/>
    <rect id="Rectangle_100" data-name="Rectangle 100" width="2" height="38" transform="translate(285 336)" fill="rgba(255,255,255,0.39)"/>
    <rect id="Rectangle_48" data-name="Rectangle 48" width="2" height="38" transform="translate(201 336)" fill="rgba(255,255,255,0.39)"/>
    <rect id="Rectangle_69" data-name="Rectangle 69" width="2" height="38" transform="translate(243 336)" fill="rgba(255,255,255,0.39)"/>
    <rect id="Rectangle_24" data-name="Rectangle 24" width="2" height="38" transform="translate(167 336)" fill="rgba(255,255,255,0.39)"/>
    <rect id="Rectangle_101" data-name="Rectangle 101" width="2" height="38" transform="translate(307 336)" fill="rgba(255,255,255,0.39)"/>
    <rect id="Rectangle_56" data-name="Rectangle 56" width="2" height="38" transform="translate(223 336)" fill="rgba(255,255,255,0.39)"/>
    <rect id="Rectangle_77" data-name="Rectangle 77" width="2" height="38" transform="translate(265 336)" fill="rgba(255,255,255,0.39)"/>
    <rect id="Rectangle_31" data-name="Rectangle 31" width="2" height="38" transform="translate(181 336)" fill="rgba(255,255,255,0.39)"/>
    <rect id="Rectangle_15" data-name="Rectangle 15" width="2" height="31" transform="translate(141 343)" fill="rgba(255,255,255,0.39)"/>
    <rect id="Rectangle_103" data-name="Rectangle 103" width="2" height="31" transform="translate(281 343)" fill="rgba(255,255,255,0.39)"/>
    <rect id="Rectangle_49" data-name="Rectangle 49" width="2" height="31" transform="translate(197 343)" fill="rgba(255,255,255,0.39)"/>
    <rect id="Rectangle_70" data-name="Rectangle 70" width="2" height="31" transform="translate(239 343)" fill="rgba(255,255,255,0.39)"/>
    <rect id="Rectangle_16" data-name="Rectangle 16" width="2" height="31" transform="translate(143 343)" fill="rgba(255,255,255,0.39)"/>
    <rect id="Rectangle_104" data-name="Rectangle 104" width="2" height="31" transform="translate(283 343)" fill="rgba(255,255,255,0.39)"/>
    <rect id="Rectangle_50" data-name="Rectangle 50" width="2" height="31" transform="translate(199 343)" fill="rgba(255,255,255,0.39)"/>
    <rect id="Rectangle_71" data-name="Rectangle 71" width="2" height="31" transform="translate(241 343)" fill="rgba(255,255,255,0.39)"/>
    <rect id="Rectangle_23" data-name="Rectangle 23" width="2" height="31" transform="translate(169 343)" fill="rgba(255,255,255,0.39)"/>
    <rect id="Rectangle_105" data-name="Rectangle 105" width="2" height="31" transform="translate(309 343)" fill="rgba(255,255,255,0.39)"/>
    <rect id="Rectangle_57" data-name="Rectangle 57" width="2" height="31" transform="translate(225 343)" fill="rgba(255,255,255,0.39)"/>
    <rect id="Rectangle_78" data-name="Rectangle 78" width="2" height="31" transform="translate(267 343)" fill="rgba(255,255,255,0.39)"/>
    <rect id="Rectangle_30" data-name="Rectangle 30" width="2" height="31" transform="translate(183 343)" fill="rgba(255,255,255,0.39)"/>
  </g>
</svg>